{
	"asset":{
		"generator":"Khronos glTF Blender I/O v5.2.39",
		"version":"2.0"
	},
	"scene":0,
	"scenes":[
		{
			"extras":{
				"exporter_coll_props":{
					"export_type":1,
					"asset_id":"asset_068eb6b4-fa93-4ae7-bb63-dd0537dc47da",
					"script_path":"",
					"group_name":"",
					"scene_style":1,
					"export_animations":0,
					"target_asset_id":"",
					"collision_layer":1,
					"collision_mask":1,
					"rigid_sleeping":0,
					"rigid_lock_rotation":0,
					"rigid_freeze":0,
					"rigid_freeze_mode":0,
					"vehicle_brake":0.0,
					"vehicle_engine_force":0.0,
					"vehicle_steering_deg":0.0,
					"vehicle_mass":40.0,
					"animatable_sync_to_physics":0,
					"multimesh_generate_collisions":0,
					"physics_material_path":"",
					"root_type":0
				},
				"NEXUS_ASSET_METADATA":{
					"asset_id":"asset_068eb6b4-fa93-4ae7-bb63-dd0537dc47da",
					"asset_name":"Contatore",
					"export_type":"ASSET",
					"root_type":"NODE_3D",
					"scene_style":"inherited",
					"script_path":"",
					"godot_groups":[],
					"collision_layer":1,
					"collision_mask":1,
					"physics_material_path":"",
					"nexus_metadata":{},
					"nexus_light_bake_mode":1,
					"material_pipeline":"nexus"
				}
			},
			"name":"Contatore",
			"nodes":[
				0,
				1,
				2,
				3,
				4,
				5,
				6,
				7,
				8,
				9,
				10,
				11,
				12,
				13
			]
		}
	],
	"nodes":[
		{
			"extras":{
				"exporter_obj_props":{
					"uuid":"obj_c0150bcb-1a50-4856-91f1-c40bdfedafad"
				},
				"NEXUS_NODE_METADATA":{
					"uuid":"obj_c0150bcb-1a50-4856-91f1-c40bdfedafad",
					"discard_mesh":false,
					"nexus_uv_layers":[
						{
							"blender_name":"UVMap",
							"gltf_channel_index":0
						}
					]
				}
			},
			"mesh":0,
			"name":"Cube.007",
			"translation":[
				0,
				0.41614413261413574,
				0
			]
		},
		{
			"extras":{
				"exporter_obj_props":{
					"uuid":"obj_bd8ce24b-e1fa-4dac-a96c-3913b6f96ec2"
				},
				"NEXUS_NODE_METADATA":{
					"uuid":"obj_bd8ce24b-e1fa-4dac-a96c-3913b6f96ec2",
					"discard_mesh":false,
					"nexus_uv_layers":[
						{
							"blender_name":"UVMap",
							"gltf_channel_index":0
						}
					]
				}
			},
			"mesh":1,
			"name":"Cube.008",
			"rotation":[
				0,
				-0.2932640016078949,
				0,
				0.9560315012931824
			],
			"translation":[
				0.4852026700973511,
				0.41750192642211914,
				0.25932833552360535
			]
		},
		{
			"extras":{
				"exporter_obj_props":{
					"uuid":"obj_d5f296fd-03a3-41dd-b22a-513c8a127caa"
				},
				"NEXUS_NODE_METADATA":{
					"uuid":"obj_d5f296fd-03a3-41dd-b22a-513c8a127caa",
					"discard_mesh":false,
					"nexus_uv_layers":[
						{
							"blender_name":"UVMap",
							"gltf_channel_index":0
						}
					]
				}
			},
			"mesh":2,
			"name":"Cube.009",
			"translation":[
				-0.12473683059215546,
				0.5943408608436584,
				0.005030453205108643
			]
		},
		{
			"extras":{
				"exporter_obj_props":{
					"uuid":"obj_db570f78-32f9-453b-8234-cdae841edca4"
				},
				"NEXUS_NODE_METADATA":{
					"uuid":"obj_db570f78-32f9-453b-8234-cdae841edca4",
					"discard_mesh":false,
					"nexus_uv_layers":[
						{
							"blender_name":"UVMap",
							"gltf_channel_index":0
						}
					]
				}
			},
			"mesh":3,
			"name":"Cube.010",
			"rotation":[
				0.25451532006263733,
				0,
				0,
				0.9670687913894653
			],
			"translation":[
				-0.12187907099723816,
				0.5943408608436584,
				0.024514585733413696
			]
		},
		{
			"extras":{
				"exporter_obj_props":{
					"uuid":"obj_77fdc133-2177-4c92-a006-b5a6ed4639b2"
				},
				"NEXUS_NODE_METADATA":{
					"uuid":"obj_77fdc133-2177-4c92-a006-b5a6ed4639b2",
					"discard_mesh":false,
					"nexus_uv_layers":[
						{
							"blender_name":"UVMap",
							"gltf_channel_index":0
						}
					]
				}
			},
			"mesh":4,
			"name":"Cube.011",
			"translation":[
				-0.00633830763399601,
				0.5943408608436584,
				0.005030453205108643
			]
		},
		{
			"extras":{
				"exporter_obj_props":{
					"uuid":"obj_361f2314-b6f3-4539-9d39-9c279ff37bf1"
				},
				"NEXUS_NODE_METADATA":{
					"uuid":"obj_361f2314-b6f3-4539-9d39-9c279ff37bf1",
					"discard_mesh":false,
					"nexus_uv_layers":[
						{
							"blender_name":"UVMap",
							"gltf_channel_index":0
						}
					]
				}
			},
			"mesh":5,
			"name":"Cube.012",
			"rotation":[
				0.25451532006263733,
				0,
				0,
				0.9670687913894653
			],
			"translation":[
				-0.0034805480390787125,
				0.5943408608436584,
				0.024514585733413696
			]
		},
		{
			"extras":{
				"exporter_obj_props":{
					"uuid":"obj_de2de3f1-8eac-4dca-bf2b-ceeb8f273e3b"
				},
				"NEXUS_NODE_METADATA":{
					"uuid":"obj_de2de3f1-8eac-4dca-bf2b-ceeb8f273e3b",
					"discard_mesh":false,
					"nexus_uv_layers":[
						{
							"blender_name":"UVMap",
							"gltf_channel_index":0
						}
					]
				}
			},
			"mesh":6,
			"name":"Cube.013",
			"translation":[
				0.11056499928236008,
				0.5943408608436584,
				0.005030453205108643
			]
		},
		{
			"extras":{
				"exporter_obj_props":{
					"uuid":"obj_753c1a9d-2f85-40f1-a49d-ef47996416d4"
				},
				"NEXUS_NODE_METADATA":{
					"uuid":"obj_753c1a9d-2f85-40f1-a49d-ef47996416d4",
					"discard_mesh":false,
					"nexus_uv_layers":[
						{
							"blender_name":"UVMap",
							"gltf_channel_index":0
						}
					]
				}
			},
			"mesh":7,
			"name":"Cube.014",
			"rotation":[
				0.25451532006263733,
				0,
				0,
				0.9670687913894653
			],
			"translation":[
				0.11342275142669678,
				0.5943408608436584,
				0.024514585733413696
			]
		},
		{
			"extras":{
				"exporter_obj_props":{
					"uuid":"obj_68697ed8-6307-4041-8c77-8ac7942d4a05"
				},
				"NEXUS_NODE_METADATA":{
					"uuid":"obj_68697ed8-6307-4041-8c77-8ac7942d4a05",
					"discard_mesh":false,
					"nexus_uv_layers":[
						{
							"blender_name":"UVMap",
							"gltf_channel_index":0
						}
					]
				}
			},
			"mesh":8,
			"name":"Cube.015",
			"translation":[
				-0.12473683059215546,
				0.5943408608436584,
				0.005030453205108643
			]
		},
		{
			"extras":{
				"exporter_obj_props":{
					"uuid":"obj_ac8d1d5b-06d5-42f8-8dc9-fc812da1567d"
				},
				"NEXUS_NODE_METADATA":{
					"uuid":"obj_ac8d1d5b-06d5-42f8-8dc9-fc812da1567d",
					"discard_mesh":false,
					"nexus_uv_layers":[
						{
							"blender_name":"UVMap",
							"gltf_channel_index":0
						}
					]
				}
			},
			"mesh":9,
			"name":"Cube.016",
			"rotation":[
				0.25451532006263733,
				0,
				0,
				0.9670687913894653
			],
			"translation":[
				-0.12187907099723816,
				0.5943408608436584,
				0.024514585733413696
			]
		},
		{
			"extras":{
				"exporter_obj_props":{
					"uuid":"obj_191496f5-4c3e-4d09-8fa7-7cc3e98fe59a"
				},
				"NEXUS_NODE_METADATA":{
					"uuid":"obj_191496f5-4c3e-4d09-8fa7-7cc3e98fe59a",
					"discard_mesh":false,
					"nexus_uv_layers":[
						{
							"blender_name":"UVMap",
							"gltf_channel_index":0
						}
					]
				}
			},
			"mesh":10,
			"name":"Cube.017",
			"translation":[
				-0.00633830763399601,
				0.5943408608436584,
				0.005030453205108643
			]
		},
		{
			"extras":{
				"exporter_obj_props":{
					"uuid":"obj_41e88eba-a278-48a8-a145-1b1f6cdd28fe"
				},
				"NEXUS_NODE_METADATA":{
					"uuid":"obj_41e88eba-a278-48a8-a145-1b1f6cdd28fe",
					"discard_mesh":false,
					"nexus_uv_layers":[
						{
							"blender_name":"UVMap",
							"gltf_channel_index":0
						}
					]
				}
			},
			"mesh":11,
			"name":"Cube.018",
			"rotation":[
				0.25451532006263733,
				0,
				0,
				0.9670687913894653
			],
			"translation":[
				-0.0034805480390787125,
				0.5943408608436584,
				0.024514585733413696
			]
		},
		{
			"extras":{
				"exporter_obj_props":{
					"uuid":"obj_eb9c1b52-d7da-4d72-97df-c72c439d138a"
				},
				"NEXUS_NODE_METADATA":{
					"uuid":"obj_eb9c1b52-d7da-4d72-97df-c72c439d138a",
					"discard_mesh":false,
					"nexus_uv_layers":[
						{
							"blender_name":"UVMap",
							"gltf_channel_index":0
						}
					]
				}
			},
			"mesh":12,
			"name":"Cube.019",
			"translation":[
				0.11056499928236008,
				0.5943408608436584,
				0.005030453205108643
			]
		},
		{
			"extras":{
				"exporter_obj_props":{
					"uuid":"obj_dae9653b-d43e-46ac-9f4d-98d031e2ec31"
				},
				"NEXUS_NODE_METADATA":{
					"uuid":"obj_dae9653b-d43e-46ac-9f4d-98d031e2ec31",
					"discard_mesh":false,
					"nexus_uv_layers":[
						{
							"blender_name":"UVMap",
							"gltf_channel_index":0
						}
					]
				}
			},
			"mesh":13,
			"name":"Cube.020",
			"rotation":[
				0.25451532006263733,
				0,
				0,
				0.9670687913894653
			],
			"translation":[
				0.11342275142669678,
				0.5943408608436584,
				0.024514585733413696
			]
		}
	],
	"materials":[
		{
			"doubleSided":true,
			"extras":{
				"nexus_material_id":"mat_b5473a41-507a-4239-b96a-6654176af812",
				"exporter_mat_props":{}
			},
			"name":"DUMMY_lavatory_mat_",
			"pbrMetallicRoughness":{
				"baseColorFactor":[
					0.800000011920929,
					0.800000011920929,
					0.800000011920929,
					1
				],
				"metallicFactor":0,
				"roughnessFactor":0.5
			}
		},
		{
			"doubleSided":true,
			"extras":{
				"nexus_material_id":"mat_0c04c9fa-f728-4d19-b74a-491bf141691e",
				"exporter_mat_props":{}
			},
			"name":"DUMMY_wall_mat_",
			"pbrMetallicRoughness":{
				"baseColorFactor":[
					0.800000011920929,
					0.800000011920929,
					0.800000011920929,
					1
				],
				"metallicFactor":0,
				"roughnessFactor":0.5
			}
		},
		{
			"doubleSided":true,
			"extras":{
				"nexus_material_id":"mat_1ecf9b94-b4f2-46f0-81b7-68f116eb786a",
				"exporter_mat_props":{}
			},
			"name":"DUMMY_button2_mat_",
			"pbrMetallicRoughness":{
				"baseColorFactor":[
					0.800000011920929,
					0.800000011920929,
					0.800000011920929,
					1
				],
				"metallicFactor":0,
				"roughnessFactor":0.5
			}
		}
	],
	"meshes":[
		{
			"name":"Cube.032",
			"primitives":[
				{
					"attributes":{
						"POSITION":0,
						"NORMAL":1,
						"TEXCOORD_0":2
					},
					"indices":3,
					"material":0
				}
			]
		},
		{
			"name":"Cube.033",
			"primitives":[
				{
					"attributes":{
						"POSITION":4,
						"NORMAL":5,
						"TEXCOORD_0":6
					},
					"indices":7,
					"material":0
				}
			]
		},
		{
			"name":"Cube.034",
			"primitives":[
				{
					"attributes":{
						"POSITION":8,
						"NORMAL":9,
						"TEXCOORD_0":10
					},
					"indices":7,
					"material":1
				}
			]
		},
		{
			"name":"Cube.035",
			"primitives":[
				{
					"attributes":{
						"POSITION":11,
						"NORMAL":12,
						"TEXCOORD_0":13
					},
					"indices":7,
					"material":2
				}
			]
		},
		{
			"name":"Cube.036",
			"primitives":[
				{
					"attributes":{
						"POSITION":14,
						"NORMAL":15,
						"TEXCOORD_0":16
					},
					"indices":7,
					"material":1
				}
			]
		},
		{
			"name":"Cube.037",
			"primitives":[
				{
					"attributes":{
						"POSITION":17,
						"NORMAL":18,
						"TEXCOORD_0":19
					},
					"indices":7,
					"material":2
				}
			]
		},
		{
			"name":"Cube.038",
			"primitives":[
				{
					"attributes":{
						"POSITION":20,
						"NORMAL":21,
						"TEXCOORD_0":22
					},
					"indices":7,
					"material":1
				}
			]
		},
		{
			"name":"Cube.039",
			"primitives":[
				{
					"attributes":{
						"POSITION":23,
						"NORMAL":24,
						"TEXCOORD_0":25
					},
					"indices":7,
					"material":2
				}
			]
		},
		{
			"name":"Cube.040",
			"primitives":[
				{
					"attributes":{
						"POSITION":26,
						"NORMAL":27,
						"TEXCOORD_0":28
					},
					"indices":7
				}
			]
		},
		{
			"name":"Cube.041",
			"primitives":[
				{
					"attributes":{
						"POSITION":29,
						"NORMAL":30,
						"TEXCOORD_0":31
					},
					"indices":7
				}
			]
		},
		{
			"name":"Cube.042",
			"primitives":[
				{
					"attributes":{
						"POSITION":32,
						"NORMAL":33,
						"TEXCOORD_0":34
					},
					"indices":7,
					"material":1
				}
			]
		},
		{
			"name":"Cube.043",
			"primitives":[
				{
					"attributes":{
						"POSITION":35,
						"NORMAL":36,
						"TEXCOORD_0":37
					},
					"indices":7
				}
			]
		},
		{
			"name":"Cube.044",
			"primitives":[
				{
					"attributes":{
						"POSITION":38,
						"NORMAL":39,
						"TEXCOORD_0":40
					},
					"indices":7
				}
			]
		},
		{
			"name":"Cube.045",
			"primitives":[
				{
					"attributes":{
						"POSITION":41,
						"NORMAL":42,
						"TEXCOORD_0":43
					},
					"indices":7
				}
			]
		}
	],
	"accessors":[
		{
			"bufferView":0,
			"componentType":5126,
			"count":52,
			"max":[
				0.26847371459007263,
				0.3999999761581421,
				0.1094759851694107
			],
			"min":[
				-0.26847371459007263,
				-0.3999999761581421,
				-0.1094759851694107
			],
			"type":"VEC3"
		},
		{
			"bufferView":1,
			"componentType":5126,
			"count":52,
			"type":"VEC3"
		},
		{
			"bufferView":2,
			"componentType":5126,
			"count":52,
			"type":"VEC2"
		},
		{
			"bufferView":3,
			"componentType":5123,
			"count":84,
			"type":"SCALAR"
		},
		{
			"bufferView":4,
			"componentType":5126,
			"count":24,
			"max":[
				0.26847371459007263,
				0.3999999761581421,
				0.01745632290840149
			],
			"min":[
				-0.26847371459007263,
				-0.3999999761581421,
				-0.01745632290840149
			],
			"type":"VEC3"
		},
		{
			"bufferView":5,
			"componentType":5126,
			"count":24,
			"type":"VEC3"
		},
		{
			"bufferView":6,
			"componentType":5126,
			"count":24,
			"type":"VEC2"
		},
		{
			"bufferView":7,
			"componentType":5123,
			"count":36,
			"type":"SCALAR"
		},
		{
			"bufferView":8,
			"componentType":5126,
			"count":24,
			"max":[
				0.04745085909962654,
				0.07069721072912216,
				0.0193491168320179
			],
			"min":[
				-0.04745085909962654,
				-0.07069721072912216,
				-0.0193491168320179
			],
			"type":"VEC3"
		},
		{
			"bufferView":9,
			"componentType":5126,
			"count":24,
			"type":"VEC3"
		},
		{
			"bufferView":10,
			"componentType":5126,
			"count":24,
			"type":"VEC2"
		},
		{
			"bufferView":11,
			"componentType":5126,
			"count":24,
			"max":[
				0.013240836560726166,
				0.01972757652401924,
				0.005399239249527454
			],
			"min":[
				-0.013240836560726166,
				-0.01972757652401924,
				-0.005399239249527454
			],
			"type":"VEC3"
		},
		{
			"bufferView":12,
			"componentType":5126,
			"count":24,
			"type":"VEC3"
		},
		{
			"bufferView":13,
			"componentType":5126,
			"count":24,
			"type":"VEC2"
		},
		{
			"bufferView":14,
			"componentType":5126,
			"count":24,
			"max":[
				0.04745085909962654,
				0.07069721072912216,
				0.0193491168320179
			],
			"min":[
				-0.04745085909962654,
				-0.07069721072912216,
				-0.0193491168320179
			],
			"type":"VEC3"
		},
		{
			"bufferView":15,
			"componentType":5126,
			"count":24,
			"type":"VEC3"
		},
		{
			"bufferView":16,
			"componentType":5126,
			"count":24,
			"type":"VEC2"
		},
		{
			"bufferView":17,
			"componentType":5126,
			"count":24,
			"max":[
				0.013240836560726166,
				0.01972757652401924,
				0.005399239249527454
			],
			"min":[
				-0.013240836560726166,
				-0.01972757652401924,
				-0.005399239249527454
			],
			"type":"VEC3"
		},
		{
			"bufferView":18,
			"componentType":5126,
			"count":24,
			"type":"VEC3"
		},
		{
			"bufferView":19,
			"componentType":5126,
			"count":24,
			"type":"VEC2"
		},
		{
			"bufferView":20,
			"componentType":5126,
			"count":24,
			"max":[
				0.04745085909962654,
				0.07069721072912216,
				0.0193491168320179
			],
			"min":[
				-0.04745085909962654,
				-0.07069721072912216,
				-0.0193491168320179
			],
			"type":"VEC3"
		},
		{
			"bufferView":21,
			"componentType":5126,
			"count":24,
			"type":"VEC3"
		},
		{
			"bufferView":22,
			"componentType":5126,
			"count":24,
			"type":"VEC2"
		},
		{
			"bufferView":23,
			"componentType":5126,
			"count":24,
			"max":[
				0.013240836560726166,
				0.01972757652401924,
				0.005399239249527454
			],
			"min":[
				-0.013240836560726166,
				-0.01972757652401924,
				-0.005399239249527454
			],
			"type":"VEC3"
		},
		{
			"bufferView":24,
			"componentType":5126,
			"count":24,
			"type":"VEC3"
		},
		{
			"bufferView":25,
			"componentType":5126,
			"count":24,
			"type":"VEC2"
		},
		{
			"bufferView":26,
			"componentType":5126,
			"count":24,
			"max":[
				0.04745085909962654,
				0.07069721072912216,
				0.0193491168320179
			],
			"min":[
				-0.04745085909962654,
				-0.07069721072912216,
				-0.0193491168320179
			],
			"type":"VEC3"
		},
		{
			"bufferView":27,
			"componentType":5126,
			"count":24,
			"type":"VEC3"
		},
		{
			"bufferView":28,
			"componentType":5126,
			"count":24,
			"type":"VEC2"
		},
		{
			"bufferView":29,
			"componentType":5126,
			"count":24,
			"max":[
				0.013240836560726166,
				0.01972757652401924,
				0.005399239249527454
			],
			"min":[
				-0.013240836560726166,
				-0.01972757652401924,
				-0.005399239249527454
			],
			"type":"VEC3"
		},
		{
			"bufferView":30,
			"componentType":5126,
			"count":24,
			"type":"VEC3"
		},
		{
			"bufferView":31,
			"componentType":5126,
			"count":24,
			"type":"VEC2"
		},
		{
			"bufferView":32,
			"componentType":5126,
			"count":24,
			"max":[
				0.04745085909962654,
				0.07069721072912216,
				0.0193491168320179
			],
			"min":[
				-0.04745085909962654,
				-0.07069721072912216,
				-0.0193491168320179
			],
			"type":"VEC3"
		},
		{
			"bufferView":33,
			"componentType":5126,
			"count":24,
			"type":"VEC3"
		},
		{
			"bufferView":34,
			"componentType":5126,
			"count":24,
			"type":"VEC2"
		},
		{
			"bufferView":35,
			"componentType":5126,
			"count":24,
			"max":[
				0.013240836560726166,
				0.01972757652401924,
				0.005399239249527454
			],
			"min":[
				-0.013240836560726166,
				-0.01972757652401924,
				-0.005399239249527454
			],
			"type":"VEC3"
		},
		{
			"bufferView":36,
			"componentType":5126,
			"count":24,
			"type":"VEC3"
		},
		{
			"bufferView":37,
			"componentType":5126,
			"count":24,
			"type":"VEC2"
		},
		{
			"bufferView":38,
			"componentType":5126,
			"count":24,
			"max":[
				0.04745085909962654,
				0.07069721072912216,
				0.0193491168320179
			],
			"min":[
				-0.04745085909962654,
				-0.07069721072912216,
				-0.0193491168320179
			],
			"type":"VEC3"
		},
		{
			"bufferView":39,
			"componentType":5126,
			"count":24,
			"type":"VEC3"
		},
		{
			"bufferView":40,
			"componentType":5126,
			"count":24,
			"type":"VEC2"
		},
		{
			"bufferView":41,
			"componentType":5126,
			"count":24,
			"max":[
				0.013240836560726166,
				0.01972757652401924,
				0.005399239249527454
			],
			"min":[
				-0.013240836560726166,
				-0.01972757652401924,
				-0.005399239249527454
			],
			"type":"VEC3"
		},
		{
			"bufferView":42,
			"componentType":5126,
			"count":24,
			"type":"VEC3"
		},
		{
			"bufferView":43,
			"componentType":5126,
			"count":24,
			"type":"VEC2"
		}
	],
	"bufferViews":[
		{
			"buffer":0,
			"byteLength":624,
			"byteOffset":0,
			"target":34962
		},
		{
			"buffer":0,
			"byteLength":624,
			"byteOffset":624,
			"target":34962
		},
		{
			"buffer":0,
			"byteLength":416,
			"byteOffset":1248,
			"target":34962
		},
		{
			"buffer":0,
			"byteLength":168,
			"byteOffset":1664,
			"target":34963
		},
		{
			"buffer":0,
			"byteLength":288,
			"byteOffset":1832,
			"target":34962
		},
		{
			"buffer":0,
			"byteLength":288,
			"byteOffset":2120,
			"target":34962
		},
		{
			"buffer":0,
			"byteLength":192,
			"byteOffset":2408,
			"target":34962
		},
		{
			"buffer":0,
			"byteLength":72,
			"byteOffset":2600,
			"target":34963
		},
		{
			"buffer":0,
			"byteLength":288,
			"byteOffset":2672,
			"target":34962
		},
		{
			"buffer":0,
			"byteLength":288,
			"byteOffset":2960,
			"target":34962
		},
		{
			"buffer":0,
			"byteLength":192,
			"byteOffset":3248,
			"target":34962
		},
		{
			"buffer":0,
			"byteLength":288,
			"byteOffset":3440,
			"target":34962
		},
		{
			"buffer":0,
			"byteLength":288,
			"byteOffset":3728,
			"target":34962
		},
		{
			"buffer":0,
			"byteLength":192,
			"byteOffset":4016,
			"target":34962
		},
		{
			"buffer":0,
			"byteLength":288,
			"byteOffset":4208,
			"target":34962
		},
		{
			"buffer":0,
			"byteLength":288,
			"byteOffset":4496,
			"target":34962
		},
		{
			"buffer":0,
			"byteLength":192,
			"byteOffset":4784,
			"target":34962
		},
		{
			"buffer":0,
			"byteLength":288,
			"byteOffset":4976,
			"target":34962
		},
		{
			"buffer":0,
			"byteLength":288,
			"byteOffset":5264,
			"target":34962
		},
		{
			"buffer":0,
			"byteLength":192,
			"byteOffset":5552,
			"target":34962
		},
		{
			"buffer":0,
			"byteLength":288,
			"byteOffset":5744,
			"target":34962
		},
		{
			"buffer":0,
			"byteLength":288,
			"byteOffset":6032,
			"target":34962
		},
		{
			"buffer":0,
			"byteLength":192,
			"byteOffset":6320,
			"target":34962
		},
		{
			"buffer":0,
			"byteLength":288,
			"byteOffset":6512,
			"target":34962
		},
		{
			"buffer":0,
			"byteLength":288,
			"byteOffset":6800,
			"target":34962
		},
		{
			"buffer":0,
			"byteLength":192,
			"byteOffset":7088,
			"target":34962
		},
		{
			"buffer":0,
			"byteLength":288,
			"byteOffset":7280,
			"target":34962
		},
		{
			"buffer":0,
			"byteLength":288,
			"byteOffset":7568,
			"target":34962
		},
		{
			"buffer":0,
			"byteLength":192,
			"byteOffset":7856,
			"target":34962
		},
		{
			"buffer":0,
			"byteLength":288,
			"byteOffset":8048,
			"target":34962
		},
		{
			"buffer":0,
			"byteLength":288,
			"byteOffset":8336,
			"target":34962
		},
		{
			"buffer":0,
			"byteLength":192,
			"byteOffset":8624,
			"target":34962
		},
		{
			"buffer":0,
			"byteLength":288,
			"byteOffset":8816,
			"target":34962
		},
		{
			"buffer":0,
			"byteLength":288,
			"byteOffset":9104,
			"target":34962
		},
		{
			"buffer":0,
			"byteLength":192,
			"byteOffset":9392,
			"target":34962
		},
		{
			"buffer":0,
			"byteLength":288,
			"byteOffset":9584,
			"target":34962
		},
		{
			"buffer":0,
			"byteLength":288,
			"byteOffset":9872,
			"target":34962
		},
		{
			"buffer":0,
			"byteLength":192,
			"byteOffset":10160,
			"target":34962
		},
		{
			"buffer":0,
			"byteLength":288,
			"byteOffset":10352,
			"target":34962
		},
		{
			"buffer":0,
			"byteLength":288,
			"byteOffset":10640,
			"target":34962
		},
		{
			"buffer":0,
			"byteLength":192,
			"byteOffset":10928,
			"target":34962
		},
		{
			"buffer":0,
			"byteLength":288,
			"byteOffset":11120,
			"target":34962
		},
		{
			"buffer":0,
			"byteLength":288,
			"byteOffset":11408,
			"target":34962
		},
		{
			"buffer":0,
			"byteLength":192,
			"byteOffset":11696,
			"target":34962
		}
	],
	"buffers":[
		{
			"byteLength":11888,
			"uri":"Contatore.bin"
		}
	]
}
