{
	"asset":{
		"generator":"Khronos glTF Blender I/O v5.2.39",
		"version":"2.0"
	},
	"scene":0,
	"scenes":[
		{
			"extras":{
				"exporter_coll_props":{
					"export_type":1,
					"asset_id":"asset_4d6f7bda-8e54-4a83-b2fc-f1bed27edc4c",
					"script_path":"",
					"group_name":"",
					"scene_style":0,
					"export_animations":0,
					"target_asset_id":"",
					"collision_layer":1,
					"collision_mask":1,
					"rigid_sleeping":0,
					"rigid_lock_rotation":0,
					"rigid_freeze":0,
					"rigid_freeze_mode":0,
					"vehicle_brake":0.0,
					"vehicle_engine_force":0.0,
					"vehicle_steering_deg":0.0,
					"vehicle_mass":40.0,
					"animatable_sync_to_physics":0,
					"multimesh_generate_collisions":0,
					"physics_material_path":"",
					"root_type":1
				},
				"NEXUS_ASSET_METADATA":{
					"asset_id":"asset_4d6f7bda-8e54-4a83-b2fc-f1bed27edc4c",
					"asset_name":"lavanery",
					"export_type":"ASSET",
					"root_type":"STATIC",
					"scene_style":"wrapper",
					"script_path":"",
					"godot_groups":[],
					"collision_layer":1,
					"collision_mask":1,
					"physics_material_path":"",
					"nexus_metadata":{},
					"nexus_light_bake_mode":1,
					"material_pipeline":"nexus"
				}
			},
			"name":"lavanery",
			"nodes":[
				0,
				1,
				2,
				3,
				4,
				5,
				6,
				7,
				8,
				9,
				10,
				11,
				12,
				13,
				14,
				15,
				16,
				17
			]
		}
	],
	"nodes":[
		{
			"extras":{
				"exporter_obj_props":{
					"collision_shape":1,
					"size_x":0.5,
					"size_y":0.5,
					"size_z":1.603240966796875,
					"radius":0.0,
					"height":0.0,
					"offset_x":0.0,
					"offset_y":0.0,
					"offset_z":-1.103240966796875,
					"uuid":"obj_7d7c8469-2941-454f-9c97-2937e4f7288c"
				},
				"NEXUS_NODE_METADATA":{
					"uuid":"obj_7d7c8469-2941-454f-9c97-2937e4f7288c",
					"discard_mesh":false,
					"nexus_collision_dims":{
						"shape":"BOX",
						"margin":1.0,
						"size_x":0.5,
						"size_y":0.5,
						"size_z":1.6032,
						"radius":0.0,
						"height":0.0,
						"offset_x":0.0,
						"offset_y":0.0,
						"offset_z":-1.1032
					},
					"nexus_uv_layers":[
						{
							"blender_name":"UVMap",
							"gltf_channel_index":0
						}
					]
				}
			},
			"mesh":0,
			"name":"Desk",
			"translation":[
				1.8800075054168701,
				0.4583478271961212,
				2.4815711975097656
			]
		},
		{
			"extras":{
				"exporter_obj_props":{
					"uuid":"obj_f998cd31-9eb1-44cd-8848-ab45a9c4da71",
					"collision_shape":1,
					"size_x":0.6000000238418579,
					"size_y":1.1000001430511475,
					"size_z":0.6000000238418579,
					"radius":0.0,
					"height":0.0,
					"offset_x":0.0,
					"offset_y":0.5000000596046448,
					"offset_z":-0.0
				},
				"NEXUS_NODE_METADATA":{
					"uuid":"obj_f998cd31-9eb1-44cd-8848-ab45a9c4da71",
					"discard_mesh":false,
					"nexus_collision_dims":{
						"shape":"BOX",
						"margin":1.0,
						"size_x":0.6,
						"size_y":1.1,
						"size_z":0.6,
						"radius":0.0,
						"height":0.0,
						"offset_x":0.0,
						"offset_y":0.5,
						"offset_z":-0.0
					},
					"nexus_uv_layers":[
						{
							"blender_name":"UVMap",
							"gltf_channel_index":0
						}
					]
				}
			},
			"mesh":1,
			"name":"Door",
			"translation":[
				-2.6868093013763428,
				0.6829703450202942,
				3.381060838699341
			]
		},
		{
			"extras":{
				"exporter_obj_props":{
					"uuid":"obj_2b182d30-2cd9-4bd9-a6f3-1953503bd60a",
					"collision_shape":1,
					"size_x":3.9999990463256836,
					"size_y":0.5,
					"size_z":3.0,
					"radius":0.0,
					"height":0.0,
					"offset_x":0.0,
					"offset_y":0.0,
					"offset_z":-0.0
				},
				"NEXUS_NODE_METADATA":{
					"uuid":"obj_2b182d30-2cd9-4bd9-a6f3-1953503bd60a",
					"discard_mesh":false,
					"nexus_collision_dims":{
						"shape":"BOX",
						"margin":1.0,
						"size_x":4.0,
						"size_y":0.5,
						"size_z":3.0,
						"radius":0.0,
						"height":0.0,
						"offset_x":0.0,
						"offset_y":0.0,
						"offset_z":-0.0
					},
					"nexus_uv_layers":[
						{
							"blender_name":"UVMap",
							"gltf_channel_index":0
						}
					]
				}
			},
			"mesh":2,
			"name":"Ground",
			"translation":[
				0,
				-0.5,
				0
			]
		},
		{
			"extras":{
				"exporter_obj_props":{
					"uuid":"obj_dcfff25c-baed-4ba6-a0bf-36ed013122a1",
					"collision_shape":1,
					"size_x":2.0,
					"size_y":0.5,
					"size_z":1.5,
					"radius":0.0,
					"height":0.0,
					"offset_x":0.0,
					"offset_y":0.0,
					"offset_z":-0.5
				},
				"NEXUS_NODE_METADATA":{
					"uuid":"obj_dcfff25c-baed-4ba6-a0bf-36ed013122a1",
					"discard_mesh":false,
					"nexus_collision_dims":{
						"shape":"BOX",
						"margin":1.0,
						"size_x":2.0,
						"size_y":0.5,
						"size_z":1.5,
						"radius":0.0,
						"height":0.0,
						"offset_x":0.0,
						"offset_y":0.0,
						"offset_z":-0.5
					},
					"nexus_uv_layers":[
						{
							"blender_name":"UVMap",
							"gltf_channel_index":0
						}
					]
				}
			},
			"mesh":3,
			"name":"ground2",
			"translation":[
				5.995344638824463,
				-0.5,
				1.9337427616119385
			]
		},
		{
			"extras":{
				"exporter_obj_props":{
					"uuid":"obj_2b182d30-2cd9-4bd9-a6f3-1953503bd60a",
					"collision_shape":1,
					"size_x":6.3042731285095215,
					"size_y":0.5,
					"size_z":3.0,
					"radius":0.0,
					"height":0.0,
					"offset_x":2.304274082183838,
					"offset_y":0.0,
					"offset_z":-0.0
				},
				"NEXUS_NODE_METADATA":{
					"uuid":"obj_bad57410-b156-44d8-b243-0932249ff5f9",
					"discard_mesh":false,
					"nexus_collision_dims":{
						"shape":"BOX",
						"margin":1.0,
						"size_x":6.3043,
						"size_y":0.5,
						"size_z":3.0,
						"radius":0.0,
						"height":0.0,
						"offset_x":2.3043,
						"offset_y":0.0,
						"offset_z":-0.0
					},
					"nexus_uv_layers":[
						{
							"blender_name":"UVMap",
							"gltf_channel_index":0
						}
					]
				}
			},
			"mesh":4,
			"name":"Ground.001",
			"translation":[
				0,
				3.3335351943969727,
				0
			]
		},
		{
			"extras":{
				"exporter_obj_props":{
					"uuid":"obj_5f83ee9e-8b4f-4037-96a4-c2bf22009c60",
					"collision_shape":1,
					"size_x":0.19999998807907104,
					"size_y":2.999999761581421,
					"size_z":2.999999761581421,
					"radius":0.0,
					"height":0.0,
					"offset_x":0.0,
					"offset_y":0.0,
					"offset_z":-0.0
				},
				"NEXUS_NODE_METADATA":{
					"uuid":"obj_5f83ee9e-8b4f-4037-96a4-c2bf22009c60",
					"discard_mesh":false,
					"nexus_collision_dims":{
						"shape":"BOX",
						"margin":1.0,
						"size_x":0.2,
						"size_y":3.0,
						"size_z":3.0,
						"radius":0.0,
						"height":0.0,
						"offset_x":0.0,
						"offset_y":0.0,
						"offset_z":-0.0
					},
					"nexus_uv_layers":[
						{
							"blender_name":"UVMap",
							"gltf_channel_index":0
						}
					]
				}
			},
			"mesh":5,
			"name":"Wall1",
			"translation":[
				-4.199999809265137,
				0,
				0
			]
		},
		{
			"extras":{
				"exporter_obj_props":{
					"uuid":"obj_98343771-fce0-49a7-9e71-ee5dfcdc6bef",
					"collision_shape":1,
					"size_x":0.19999998807907104,
					"size_y":2.999999761581421,
					"size_z":2.999999761581421,
					"radius":0.0,
					"height":0.0,
					"offset_x":0.0,
					"offset_y":0.0,
					"offset_z":-0.0
				},
				"NEXUS_NODE_METADATA":{
					"uuid":"obj_98343771-fce0-49a7-9e71-ee5dfcdc6bef",
					"discard_mesh":false,
					"nexus_collision_dims":{
						"shape":"BOX",
						"margin":1.0,
						"size_x":0.2,
						"size_y":3.0,
						"size_z":3.0,
						"radius":0.0,
						"height":0.0,
						"offset_x":0.0,
						"offset_y":0.0,
						"offset_z":-0.0
					},
					"nexus_uv_layers":[
						{
							"blender_name":"UVMap",
							"gltf_channel_index":0
						}
					]
				}
			},
			"mesh":6,
			"name":"Wall1.001",
			"translation":[
				8.185616493225098,
				0,
				0
			]
		},
		{
			"extras":{
				"exporter_obj_props":{
					"uuid":"obj_5a5788dc-ad24-4065-afa8-cb8236be98b5",
					"collision_shape":1,
					"size_x":0.19999998807907104,
					"size_y":2.999999761581421,
					"size_z":2.171104907989502,
					"radius":0.0,
					"height":0.0,
					"offset_x":0.0,
					"offset_y":0.0,
					"offset_z":-0.828894853591919
				},
				"NEXUS_NODE_METADATA":{
					"uuid":"obj_5a5788dc-ad24-4065-afa8-cb8236be98b5",
					"discard_mesh":false,
					"nexus_collision_dims":{
						"shape":"BOX",
						"margin":1.0,
						"size_x":0.2,
						"size_y":3.0,
						"size_z":2.1711,
						"radius":0.0,
						"height":0.0,
						"offset_x":0.0,
						"offset_y":0.0,
						"offset_z":-0.8289
					},
					"nexus_uv_layers":[
						{
							"blender_name":"UVMap",
							"gltf_channel_index":0
						}
					]
				}
			},
			"mesh":7,
			"name":"Wall2",
			"translation":[
				4.199999809265137,
				2.9381279945373535,
				0
			]
		},
		{
			"extras":{
				"exporter_obj_props":{
					"uuid":"obj_f506c6ee-f906-41f1-b453-f1146ca55203",
					"collision_shape":1,
					"size_x":0.19999998807907104,
					"size_y":2.999999761581421,
					"size_z":2.171104907989502,
					"radius":0.0,
					"height":0.0,
					"offset_x":0.0,
					"offset_y":0.0,
					"offset_z":-0.828894853591919
				},
				"NEXUS_NODE_METADATA":{
					"uuid":"obj_f506c6ee-f906-41f1-b453-f1146ca55203",
					"discard_mesh":false,
					"nexus_collision_dims":{
						"shape":"BOX",
						"margin":1.0,
						"size_x":0.2,
						"size_y":3.0,
						"size_z":2.1711,
						"radius":0.0,
						"height":0.0,
						"offset_x":0.0,
						"offset_y":0.0,
						"offset_z":-0.8289
					},
					"nexus_uv_layers":[
						{
							"blender_name":"UVMap",
							"gltf_channel_index":0
						}
					]
				}
			},
			"mesh":8,
			"name":"Wall2.001",
			"translation":[
				4.199999809265137,
				2.9381279945373535,
				5.5023417472839355
			]
		},
		{
			"extras":{
				"exporter_obj_props":{
					"uuid":"obj_f438faa1-3afc-49e5-8c81-fa7436303b26",
					"collision_shape":1,
					"size_x":0.19999998807907104,
					"size_y":1.8566776514053345,
					"size_z":0.5905206799507141,
					"radius":0.0,
					"height":0.0,
					"offset_x":0.0,
					"offset_y":-1.1433221101760864,
					"offset_z":-0.9240433573722839
				},
				"NEXUS_NODE_METADATA":{
					"uuid":"obj_f438faa1-3afc-49e5-8c81-fa7436303b26",
					"discard_mesh":false,
					"nexus_collision_dims":{
						"shape":"BOX",
						"margin":1.0,
						"size_x":0.2,
						"size_y":1.8567,
						"size_z":0.5905,
						"radius":0.0,
						"height":0.0,
						"offset_x":0.0,
						"offset_y":-1.1433,
						"offset_z":-0.924
					},
					"nexus_uv_layers":[
						{
							"blender_name":"UVMap",
							"gltf_channel_index":0
						}
					]
				}
			},
			"mesh":9,
			"name":"Wall2.002",
			"translation":[
				4.199999809265137,
				5.215763568878174,
				2.8345112800598145
			]
		},
		{
			"extras":{
				"exporter_obj_props":{
					"uuid":"obj_21f6fb48-18a9-4043-b91b-e3ac7d784b81",
					"collision_shape":1,
					"size_x":0.2799999713897705,
					"size_y":4.199999809265137,
					"size_z":4.199999809265137,
					"radius":0.0,
					"height":0.0,
					"offset_x":0.0,
					"offset_y":0.0,
					"offset_z":-0.0
				},
				"NEXUS_NODE_METADATA":{
					"uuid":"obj_21f6fb48-18a9-4043-b91b-e3ac7d784b81",
					"discard_mesh":false,
					"nexus_collision_dims":{
						"shape":"BOX",
						"margin":1.0,
						"size_x":0.28,
						"size_y":4.2,
						"size_z":4.2,
						"radius":0.0,
						"height":0.0,
						"offset_x":0.0,
						"offset_y":0.0,
						"offset_z":-0.0
					},
					"nexus_uv_layers":[
						{
							"blender_name":"UVMap",
							"gltf_channel_index":0
						}
					]
				}
			},
			"mesh":10,
			"name":"Wall3",
			"rotation":[
				0,
				0.7071068286895752,
				0,
				0.7071068286895752
			],
			"translation":[
				0,
				0,
				-3.200000047683716
			]
		},
		{
			"extras":{
				"exporter_obj_props":{
					"uuid":"obj_aee78a18-20ab-42aa-a53e-773e8f235851",
					"collision_shape":1,
					"size_x":0.2799999713897705,
					"size_y":4.199999809265137,
					"size_z":4.199999809265137,
					"radius":0.0,
					"height":0.0,
					"offset_x":0.0,
					"offset_y":0.0,
					"offset_z":-0.0
				},
				"NEXUS_NODE_METADATA":{
					"uuid":"obj_aee78a18-20ab-42aa-a53e-773e8f235851",
					"discard_mesh":false,
					"nexus_collision_dims":{
						"shape":"BOX",
						"margin":1.0,
						"size_x":0.28,
						"size_y":4.2,
						"size_z":4.2,
						"radius":0.0,
						"height":0.0,
						"offset_x":0.0,
						"offset_y":0.0,
						"offset_z":-0.0
					},
					"nexus_uv_layers":[
						{
							"blender_name":"UVMap",
							"gltf_channel_index":0
						}
					]
				}
			},
			"mesh":11,
			"name":"Wall3.001",
			"rotation":[
				0,
				0.7071068286895752,
				0,
				0.7071068286895752
			],
			"translation":[
				8.451448440551758,
				0,
				-0.3277682960033417
			]
		},
		{
			"extras":{
				"exporter_obj_props":{
					"uuid":"obj_433a3b47-0105-4a31-8f1d-5244df1c32d2",
					"collision_shape":1,
					"size_x":0.28000009059906006,
					"size_y":4.199999809265137,
					"size_z":6.242285251617432,
					"radius":0.0,
					"height":0.0,
					"offset_x":-1.043081283569336e-07,
					"offset_y":0.0,
					"offset_z":2.042285442352295
				},
				"NEXUS_NODE_METADATA":{
					"uuid":"obj_433a3b47-0105-4a31-8f1d-5244df1c32d2",
					"discard_mesh":false,
					"nexus_collision_dims":{
						"shape":"BOX",
						"margin":1.0,
						"size_x":0.28,
						"size_y":4.2,
						"size_z":6.2423,
						"radius":0.0,
						"height":0.0,
						"offset_x":-0.0,
						"offset_y":0.0,
						"offset_z":2.0423
					},
					"nexus_uv_layers":[
						{
							"blender_name":"UVMap",
							"gltf_channel_index":0
						}
					]
				}
			},
			"mesh":12,
			"name":"Wall4",
			"rotation":[
				0,
				0.7071068286895752,
				0,
				0.7071068286895752
			],
			"translation":[
				0,
				0,
				3.200000047683716
			]
		},
		{
			"extras":{
				"exporter_obj_props":{
					"uuid":"obj_d6e32ba4-780c-40b7-8373-b3acec9c2825",
					"collision_shape":1,
					"size_x":0.5,
					"size_y":0.5,
					"size_z":0.5,
					"radius":0.0,
					"height":0.0,
					"offset_x":0.0,
					"offset_y":0.0,
					"offset_z":-0.0
				},
				"NEXUS_NODE_METADATA":{
					"uuid":"obj_d6e32ba4-780c-40b7-8373-b3acec9c2825",
					"discard_mesh":false,
					"nexus_collision_dims":{
						"shape":"BOX",
						"margin":1.0,
						"size_x":0.5,
						"size_y":0.5,
						"size_z":0.5,
						"radius":0.0,
						"height":0.0,
						"offset_x":0.0,
						"offset_y":0.0,
						"offset_z":-0.0
					},
					"nexus_uv_layers":[
						{
							"blender_name":"UVMap",
							"gltf_channel_index":0
						}
					]
				}
			},
			"mesh":13,
			"name":"Whasshing_macchine",
			"translation":[
				-2.3888752460479736,
				0.5199960470199585,
				-2.43405818939209
			]
		},
		{
			"extras":{
				"exporter_obj_props":{
					"uuid":"obj_b1f22872-867a-4f4b-883d-47ba5629807f",
					"collision_shape":1,
					"size_x":0.5,
					"size_y":0.5,
					"size_z":0.5,
					"radius":0.0,
					"height":0.0,
					"offset_x":0.0,
					"offset_y":0.0,
					"offset_z":-0.0
				},
				"NEXUS_NODE_METADATA":{
					"uuid":"obj_b1f22872-867a-4f4b-883d-47ba5629807f",
					"discard_mesh":false,
					"nexus_collision_dims":{
						"shape":"BOX",
						"margin":1.0,
						"size_x":0.5,
						"size_y":0.5,
						"size_z":0.5,
						"radius":0.0,
						"height":0.0,
						"offset_x":0.0,
						"offset_y":0.0,
						"offset_z":-0.0
					},
					"nexus_uv_layers":[
						{
							"blender_name":"UVMap",
							"gltf_channel_index":0
						}
					]
				}
			},
			"mesh":14,
			"name":"Whasshing_macchine.001",
			"translation":[
				-3.4788472652435303,
				0.5199960470199585,
				-2.43405818939209
			]
		},
		{
			"extras":{
				"exporter_obj_props":{
					"uuid":"obj_8cdc29b2-c5dd-4ffb-ab87-0bd5d6529c76",
					"collision_shape":1,
					"size_x":0.5,
					"size_y":0.5,
					"size_z":0.5,
					"radius":0.0,
					"height":0.0,
					"offset_x":0.0,
					"offset_y":0.0,
					"offset_z":-0.0
				},
				"NEXUS_NODE_METADATA":{
					"uuid":"obj_8cdc29b2-c5dd-4ffb-ab87-0bd5d6529c76",
					"discard_mesh":false,
					"nexus_collision_dims":{
						"shape":"BOX",
						"margin":1.0,
						"size_x":0.5,
						"size_y":0.5,
						"size_z":0.5,
						"radius":0.0,
						"height":0.0,
						"offset_x":0.0,
						"offset_y":0.0,
						"offset_z":-0.0
					},
					"nexus_uv_layers":[
						{
							"blender_name":"UVMap",
							"gltf_channel_index":0
						}
					]
				}
			},
			"mesh":15,
			"name":"Whasshing_macchine.002",
			"translation":[
				-1.2898703813552856,
				0.5199960470199585,
				-2.43405818939209
			]
		},
		{
			"extras":{
				"exporter_obj_props":{
					"uuid":"obj_1864475f-a6de-4a65-ab3e-89b7c29b4570",
					"collision_shape":1,
					"size_x":0.5,
					"size_y":0.5,
					"size_z":0.5,
					"radius":0.0,
					"height":0.0,
					"offset_x":0.0,
					"offset_y":0.0,
					"offset_z":-0.0
				},
				"NEXUS_NODE_METADATA":{
					"uuid":"obj_1864475f-a6de-4a65-ab3e-89b7c29b4570",
					"discard_mesh":false,
					"nexus_collision_dims":{
						"shape":"BOX",
						"margin":1.0,
						"size_x":0.5,
						"size_y":0.5,
						"size_z":0.5,
						"radius":0.0,
						"height":0.0,
						"offset_x":0.0,
						"offset_y":0.0,
						"offset_z":-0.0
					},
					"nexus_uv_layers":[
						{
							"blender_name":"UVMap",
							"gltf_channel_index":0
						}
					]
				}
			},
			"mesh":16,
			"name":"Whasshing_macchine.003",
			"translation":[
				-0.20688319206237793,
				0.5199960470199585,
				-2.43405818939209
			]
		},
		{
			"extras":{
				"exporter_obj_props":{
					"uuid":"obj_688924a3-b507-4346-8586-ce79c74c20f2",
					"collision_shape":1,
					"size_x":0.5,
					"size_y":0.5,
					"size_z":0.5,
					"radius":0.0,
					"height":0.0,
					"offset_x":0.0,
					"offset_y":0.0,
					"offset_z":-0.0
				},
				"NEXUS_NODE_METADATA":{
					"uuid":"obj_688924a3-b507-4346-8586-ce79c74c20f2",
					"discard_mesh":false,
					"nexus_collision_dims":{
						"shape":"BOX",
						"margin":1.0,
						"size_x":0.5,
						"size_y":0.5,
						"size_z":0.5,
						"radius":0.0,
						"height":0.0,
						"offset_x":0.0,
						"offset_y":0.0,
						"offset_z":-0.0
					},
					"nexus_uv_layers":[
						{
							"blender_name":"UVMap",
							"gltf_channel_index":0
						}
					]
				}
			},
			"mesh":17,
			"name":"Whasshing_macchine.004",
			"translation":[
				0.9214544296264648,
				0.5199960470199585,
				-2.43405818939209
			]
		}
	],
	"materials":[
		{
			"doubleSided":true,
			"extras":{
				"nexus_material_id":"mat_1ecf9b94-b4f2-46f0-81b7-68f116eb786a"
			},
			"name":"DUMMY_desk_mat_",
			"pbrMetallicRoughness":{
				"baseColorFactor":[
					0.800000011920929,
					0.800000011920929,
					0.800000011920929,
					1
				],
				"metallicFactor":0,
				"roughnessFactor":0.5
			}
		},
		{
			"doubleSided":true,
			"extras":{
				"nexus_material_id":"mat_687e30ae-6e6c-4f63-858f-25aa71a0ddb0"
			},
			"name":"DUMMY_door_mat_",
			"pbrMetallicRoughness":{
				"baseColorFactor":[
					0.800000011920929,
					0.800000011920929,
					0.800000011920929,
					1
				],
				"metallicFactor":0,
				"roughnessFactor":0.5
			}
		},
		{
			"doubleSided":true,
			"extras":{
				"nexus_material_id":"mat_1abfa7a3-c3a8-4cd0-8827-e23d9d2efd4c",
				"exporter_mat_props":{}
			},
			"name":"DUMMY_ground_mat_",
			"pbrMetallicRoughness":{
				"baseColorFactor":[
					0.800000011920929,
					0.800000011920929,
					0.800000011920929,
					1
				],
				"metallicFactor":0,
				"roughnessFactor":0.5
			}
		},
		{
			"doubleSided":true,
			"extras":{
				"nexus_material_id":"mat_b2284dfe-0c52-42ac-8333-eaa09719fb0b",
				"exporter_mat_props":{}
			},
			"name":"DUMMY_wall_mat_",
			"pbrMetallicRoughness":{
				"baseColorFactor":[
					0.800000011920929,
					0.800000011920929,
					0.800000011920929,
					1
				],
				"metallicFactor":0,
				"roughnessFactor":0.5
			}
		},
		{
			"doubleSided":true,
			"extras":{
				"nexus_material_id":"mat_b5473a41-507a-4239-b96a-6654176af812",
				"exporter_mat_props":{}
			},
			"name":"DUMMY_lavatory_mat_",
			"pbrMetallicRoughness":{
				"baseColorFactor":[
					0.800000011920929,
					0.800000011920929,
					0.800000011920929,
					1
				],
				"metallicFactor":0,
				"roughnessFactor":0.5
			}
		}
	],
	"meshes":[
		{
			"name":"Cube.007",
			"primitives":[
				{
					"attributes":{
						"POSITION":0,
						"NORMAL":1,
						"TEXCOORD_0":2
					},
					"indices":3,
					"material":0
				}
			]
		},
		{
			"name":"Cube.012",
			"primitives":[
				{
					"attributes":{
						"POSITION":4,
						"NORMAL":5,
						"TEXCOORD_0":6
					},
					"indices":3,
					"material":1
				}
			]
		},
		{
			"name":"Cube.001",
			"primitives":[
				{
					"attributes":{
						"POSITION":7,
						"NORMAL":8,
						"TEXCOORD_0":9
					},
					"indices":3,
					"material":2
				}
			]
		},
		{
			"name":"Cube.016",
			"primitives":[
				{
					"attributes":{
						"POSITION":10,
						"NORMAL":11,
						"TEXCOORD_0":12
					},
					"indices":3,
					"material":2
				}
			]
		},
		{
			"name":"Cube.019",
			"primitives":[
				{
					"attributes":{
						"POSITION":13,
						"NORMAL":14,
						"TEXCOORD_0":15
					},
					"indices":3,
					"material":2
				}
			]
		},
		{
			"name":"Cube.008",
			"primitives":[
				{
					"attributes":{
						"POSITION":16,
						"NORMAL":17,
						"TEXCOORD_0":18
					},
					"indices":3,
					"material":3
				}
			]
		},
		{
			"name":"Cube.017",
			"primitives":[
				{
					"attributes":{
						"POSITION":19,
						"NORMAL":20,
						"TEXCOORD_0":21
					},
					"indices":3,
					"material":3
				}
			]
		},
		{
			"name":"Cube.009",
			"primitives":[
				{
					"attributes":{
						"POSITION":22,
						"NORMAL":23,
						"TEXCOORD_0":24
					},
					"indices":3,
					"material":3
				}
			]
		},
		{
			"name":"Cube.014",
			"primitives":[
				{
					"attributes":{
						"POSITION":25,
						"NORMAL":26,
						"TEXCOORD_0":27
					},
					"indices":3,
					"material":3
				}
			]
		},
		{
			"name":"Cube.015",
			"primitives":[
				{
					"attributes":{
						"POSITION":28,
						"NORMAL":29,
						"TEXCOORD_0":30
					},
					"indices":3,
					"material":3
				}
			]
		},
		{
			"name":"Cube.010",
			"primitives":[
				{
					"attributes":{
						"POSITION":31,
						"NORMAL":32,
						"TEXCOORD_0":33
					},
					"indices":3,
					"material":3
				}
			]
		},
		{
			"name":"Cube.018",
			"primitives":[
				{
					"attributes":{
						"POSITION":34,
						"NORMAL":35,
						"TEXCOORD_0":36
					},
					"indices":3,
					"material":3
				}
			]
		},
		{
			"name":"Cube.011",
			"primitives":[
				{
					"attributes":{
						"POSITION":37,
						"NORMAL":38,
						"TEXCOORD_0":39
					},
					"indices":3,
					"material":3
				}
			]
		},
		{
			"name":"Cube.002",
			"primitives":[
				{
					"attributes":{
						"POSITION":40,
						"NORMAL":41,
						"TEXCOORD_0":42
					},
					"indices":3,
					"material":4
				}
			]
		},
		{
			"name":"Cube.003",
			"primitives":[
				{
					"attributes":{
						"POSITION":43,
						"NORMAL":44,
						"TEXCOORD_0":45
					},
					"indices":3,
					"material":4
				}
			]
		},
		{
			"name":"Cube.004",
			"primitives":[
				{
					"attributes":{
						"POSITION":46,
						"NORMAL":47,
						"TEXCOORD_0":48
					},
					"indices":3,
					"material":4
				}
			]
		},
		{
			"name":"Cube.005",
			"primitives":[
				{
					"attributes":{
						"POSITION":49,
						"NORMAL":50,
						"TEXCOORD_0":51
					},
					"indices":3,
					"material":4
				}
			]
		},
		{
			"name":"Cube.006",
			"primitives":[
				{
					"attributes":{
						"POSITION":52,
						"NORMAL":53,
						"TEXCOORD_0":54
					},
					"indices":3,
					"material":4
				}
			]
		}
	],
	"accessors":[
		{
			"bufferView":0,
			"componentType":5126,
			"count":24,
			"max":[
				0.5,
				0.5,
				0.5
			],
			"min":[
				-0.5,
				-0.5,
				-2.70648193359375
			],
			"type":"VEC3"
		},
		{
			"bufferView":1,
			"componentType":5126,
			"count":24,
			"type":"VEC3"
		},
		{
			"bufferView":2,
			"componentType":5126,
			"count":24,
			"type":"VEC2"
		},
		{
			"bufferView":3,
			"componentType":5123,
			"count":36,
			"type":"SCALAR"
		},
		{
			"bufferView":4,
			"componentType":5126,
			"count":24,
			"max":[
				0.6000000238418579,
				1.6000001430511475,
				0.6000000238418579
			],
			"min":[
				-0.6000000238418579,
				-0.6000000238418579,
				-0.6000000238418579
			],
			"type":"VEC3"
		},
		{
			"bufferView":5,
			"componentType":5126,
			"count":24,
			"type":"VEC3"
		},
		{
			"bufferView":6,
			"componentType":5126,
			"count":24,
			"type":"VEC2"
		},
		{
			"bufferView":7,
			"componentType":5126,
			"count":24,
			"max":[
				3.9999990463256836,
				0.5,
				3
			],
			"min":[
				-3.9999990463256836,
				-0.5,
				-3
			],
			"type":"VEC3"
		},
		{
			"bufferView":8,
			"componentType":5126,
			"count":24,
			"type":"VEC3"
		},
		{
			"bufferView":9,
			"componentType":5126,
			"count":24,
			"type":"VEC2"
		},
		{
			"bufferView":10,
			"componentType":5126,
			"count":24,
			"max":[
				2,
				0.5,
				1
			],
			"min":[
				-2,
				-0.5,
				-2
			],
			"type":"VEC3"
		},
		{
			"bufferView":11,
			"componentType":5126,
			"count":24,
			"type":"VEC3"
		},
		{
			"bufferView":12,
			"componentType":5126,
			"count":24,
			"type":"VEC2"
		},
		{
			"bufferView":13,
			"componentType":5126,
			"count":24,
			"max":[
				8.60854721069336,
				0.5,
				3
			],
			"min":[
				-3.9999990463256836,
				-0.5,
				-3
			],
			"type":"VEC3"
		},
		{
			"bufferView":14,
			"componentType":5126,
			"count":24,
			"type":"VEC3"
		},
		{
			"bufferView":15,
			"componentType":5126,
			"count":24,
			"type":"VEC2"
		},
		{
			"bufferView":16,
			"componentType":5126,
			"count":24,
			"max":[
				0.19999998807907104,
				2.999999761581421,
				2.999999761581421
			],
			"min":[
				-0.19999998807907104,
				-2.999999761581421,
				-2.999999761581421
			],
			"type":"VEC3"
		},
		{
			"bufferView":17,
			"componentType":5126,
			"count":24,
			"type":"VEC3"
		},
		{
			"bufferView":18,
			"componentType":5126,
			"count":24,
			"type":"VEC2"
		},
		{
			"bufferView":19,
			"componentType":5126,
			"count":24,
			"max":[
				0.19999998807907104,
				2.999999761581421,
				2.999999761581421
			],
			"min":[
				-0.19999998807907104,
				-2.999999761581421,
				-2.999999761581421
			],
			"type":"VEC3"
		},
		{
			"bufferView":20,
			"componentType":5126,
			"count":24,
			"type":"VEC3"
		},
		{
			"bufferView":21,
			"componentType":5126,
			"count":24,
			"type":"VEC2"
		},
		{
			"bufferView":22,
			"componentType":5126,
			"count":24,
			"max":[
				0.19999998807907104,
				2.999999761581421,
				1.342210054397583
			],
			"min":[
				-0.19999998807907104,
				-2.999999761581421,
				-2.999999761581421
			],
			"type":"VEC3"
		},
		{
			"bufferView":23,
			"componentType":5126,
			"count":24,
			"type":"VEC3"
		},
		{
			"bufferView":24,
			"componentType":5126,
			"count":24,
			"type":"VEC2"
		},
		{
			"bufferView":25,
			"componentType":5126,
			"count":24,
			"max":[
				0.19999998807907104,
				2.999999761581421,
				1.342210054397583
			],
			"min":[
				-0.19999998807907104,
				-2.999999761581421,
				-2.999999761581421
			],
			"type":"VEC3"
		},
		{
			"bufferView":26,
			"componentType":5126,
			"count":24,
			"type":"VEC3"
		},
		{
			"bufferView":27,
			"componentType":5126,
			"count":24,
			"type":"VEC2"
		},
		{
			"bufferView":28,
			"componentType":5126,
			"count":24,
			"max":[
				0.19999998807907104,
				0.713355541229248,
				-0.33352264761924744
			],
			"min":[
				-0.19999998807907104,
				-2.999999761581421,
				-1.514564037322998
			],
			"type":"VEC3"
		},
		{
			"bufferView":29,
			"componentType":5126,
			"count":24,
			"type":"VEC3"
		},
		{
			"bufferView":30,
			"componentType":5126,
			"count":24,
			"type":"VEC2"
		},
		{
			"bufferView":31,
			"componentType":5126,
			"count":24,
			"max":[
				0.2799999713897705,
				4.199999809265137,
				4.199999809265137
			],
			"min":[
				-0.2799999713897705,
				-4.199999809265137,
				-4.199999809265137
			],
			"type":"VEC3"
		},
		{
			"bufferView":32,
			"componentType":5126,
			"count":24,
			"type":"VEC3"
		},
		{
			"bufferView":33,
			"componentType":5126,
			"count":24,
			"type":"VEC2"
		},
		{
			"bufferView":34,
			"componentType":5126,
			"count":24,
			"max":[
				0.2799999713897705,
				4.199999809265137,
				4.199999809265137
			],
			"min":[
				-0.2799999713897705,
				-4.199999809265137,
				-4.199999809265137
			],
			"type":"VEC3"
		},
		{
			"bufferView":35,
			"componentType":5126,
			"count":24,
			"type":"VEC3"
		},
		{
			"bufferView":36,
			"componentType":5126,
			"count":24,
			"type":"VEC2"
		},
		{
			"bufferView":37,
			"componentType":5126,
			"count":24,
			"max":[
				0.2799999713897705,
				4.199999809265137,
				8.284570693969727
			],
			"min":[
				-0.2800001800060272,
				-4.199999809265137,
				-4.199999809265137
			],
			"type":"VEC3"
		},
		{
			"bufferView":38,
			"componentType":5126,
			"count":24,
			"type":"VEC3"
		},
		{
			"bufferView":39,
			"componentType":5126,
			"count":24,
			"type":"VEC2"
		},
		{
			"bufferView":40,
			"componentType":5126,
			"count":24,
			"max":[
				0.5,
				0.5,
				0.5
			],
			"min":[
				-0.5,
				-0.5,
				-0.5
			],
			"type":"VEC3"
		},
		{
			"bufferView":41,
			"componentType":5126,
			"count":24,
			"type":"VEC3"
		},
		{
			"bufferView":42,
			"componentType":5126,
			"count":24,
			"type":"VEC2"
		},
		{
			"bufferView":43,
			"componentType":5126,
			"count":24,
			"max":[
				0.5,
				0.5,
				0.5
			],
			"min":[
				-0.5,
				-0.5,
				-0.5
			],
			"type":"VEC3"
		},
		{
			"bufferView":44,
			"componentType":5126,
			"count":24,
			"type":"VEC3"
		},
		{
			"bufferView":45,
			"componentType":5126,
			"count":24,
			"type":"VEC2"
		},
		{
			"bufferView":46,
			"componentType":5126,
			"count":24,
			"max":[
				0.5,
				0.5,
				0.5
			],
			"min":[
				-0.5,
				-0.5,
				-0.5
			],
			"type":"VEC3"
		},
		{
			"bufferView":47,
			"componentType":5126,
			"count":24,
			"type":"VEC3"
		},
		{
			"bufferView":48,
			"componentType":5126,
			"count":24,
			"type":"VEC2"
		},
		{
			"bufferView":49,
			"componentType":5126,
			"count":24,
			"max":[
				0.5,
				0.5,
				0.5
			],
			"min":[
				-0.5,
				-0.5,
				-0.5
			],
			"type":"VEC3"
		},
		{
			"bufferView":50,
			"componentType":5126,
			"count":24,
			"type":"VEC3"
		},
		{
			"bufferView":51,
			"componentType":5126,
			"count":24,
			"type":"VEC2"
		},
		{
			"bufferView":52,
			"componentType":5126,
			"count":24,
			"max":[
				0.5,
				0.5,
				0.5
			],
			"min":[
				-0.5,
				-0.5,
				-0.5
			],
			"type":"VEC3"
		},
		{
			"bufferView":53,
			"componentType":5126,
			"count":24,
			"type":"VEC3"
		},
		{
			"bufferView":54,
			"componentType":5126,
			"count":24,
			"type":"VEC2"
		}
	],
	"bufferViews":[
		{
			"buffer":0,
			"byteLength":288,
			"byteOffset":0,
			"target":34962
		},
		{
			"buffer":0,
			"byteLength":288,
			"byteOffset":288,
			"target":34962
		},
		{
			"buffer":0,
			"byteLength":192,
			"byteOffset":576,
			"target":34962
		},
		{
			"buffer":0,
			"byteLength":72,
			"byteOffset":768,
			"target":34963
		},
		{
			"buffer":0,
			"byteLength":288,
			"byteOffset":840,
			"target":34962
		},
		{
			"buffer":0,
			"byteLength":288,
			"byteOffset":1128,
			"target":34962
		},
		{
			"buffer":0,
			"byteLength":192,
			"byteOffset":1416,
			"target":34962
		},
		{
			"buffer":0,
			"byteLength":288,
			"byteOffset":1608,
			"target":34962
		},
		{
			"buffer":0,
			"byteLength":288,
			"byteOffset":1896,
			"target":34962
		},
		{
			"buffer":0,
			"byteLength":192,
			"byteOffset":2184,
			"target":34962
		},
		{
			"buffer":0,
			"byteLength":288,
			"byteOffset":2376,
			"target":34962
		},
		{
			"buffer":0,
			"byteLength":288,
			"byteOffset":2664,
			"target":34962
		},
		{
			"buffer":0,
			"byteLength":192,
			"byteOffset":2952,
			"target":34962
		},
		{
			"buffer":0,
			"byteLength":288,
			"byteOffset":3144,
			"target":34962
		},
		{
			"buffer":0,
			"byteLength":288,
			"byteOffset":3432,
			"target":34962
		},
		{
			"buffer":0,
			"byteLength":192,
			"byteOffset":3720,
			"target":34962
		},
		{
			"buffer":0,
			"byteLength":288,
			"byteOffset":3912,
			"target":34962
		},
		{
			"buffer":0,
			"byteLength":288,
			"byteOffset":4200,
			"target":34962
		},
		{
			"buffer":0,
			"byteLength":192,
			"byteOffset":4488,
			"target":34962
		},
		{
			"buffer":0,
			"byteLength":288,
			"byteOffset":4680,
			"target":34962
		},
		{
			"buffer":0,
			"byteLength":288,
			"byteOffset":4968,
			"target":34962
		},
		{
			"buffer":0,
			"byteLength":192,
			"byteOffset":5256,
			"target":34962
		},
		{
			"buffer":0,
			"byteLength":288,
			"byteOffset":5448,
			"target":34962
		},
		{
			"buffer":0,
			"byteLength":288,
			"byteOffset":5736,
			"target":34962
		},
		{
			"buffer":0,
			"byteLength":192,
			"byteOffset":6024,
			"target":34962
		},
		{
			"buffer":0,
			"byteLength":288,
			"byteOffset":6216,
			"target":34962
		},
		{
			"buffer":0,
			"byteLength":288,
			"byteOffset":6504,
			"target":34962
		},
		{
			"buffer":0,
			"byteLength":192,
			"byteOffset":6792,
			"target":34962
		},
		{
			"buffer":0,
			"byteLength":288,
			"byteOffset":6984,
			"target":34962
		},
		{
			"buffer":0,
			"byteLength":288,
			"byteOffset":7272,
			"target":34962
		},
		{
			"buffer":0,
			"byteLength":192,
			"byteOffset":7560,
			"target":34962
		},
		{
			"buffer":0,
			"byteLength":288,
			"byteOffset":7752,
			"target":34962
		},
		{
			"buffer":0,
			"byteLength":288,
			"byteOffset":8040,
			"target":34962
		},
		{
			"buffer":0,
			"byteLength":192,
			"byteOffset":8328,
			"target":34962
		},
		{
			"buffer":0,
			"byteLength":288,
			"byteOffset":8520,
			"target":34962
		},
		{
			"buffer":0,
			"byteLength":288,
			"byteOffset":8808,
			"target":34962
		},
		{
			"buffer":0,
			"byteLength":192,
			"byteOffset":9096,
			"target":34962
		},
		{
			"buffer":0,
			"byteLength":288,
			"byteOffset":9288,
			"target":34962
		},
		{
			"buffer":0,
			"byteLength":288,
			"byteOffset":9576,
			"target":34962
		},
		{
			"buffer":0,
			"byteLength":192,
			"byteOffset":9864,
			"target":34962
		},
		{
			"buffer":0,
			"byteLength":288,
			"byteOffset":10056,
			"target":34962
		},
		{
			"buffer":0,
			"byteLength":288,
			"byteOffset":10344,
			"target":34962
		},
		{
			"buffer":0,
			"byteLength":192,
			"byteOffset":10632,
			"target":34962
		},
		{
			"buffer":0,
			"byteLength":288,
			"byteOffset":10824,
			"target":34962
		},
		{
			"buffer":0,
			"byteLength":288,
			"byteOffset":11112,
			"target":34962
		},
		{
			"buffer":0,
			"byteLength":192,
			"byteOffset":11400,
			"target":34962
		},
		{
			"buffer":0,
			"byteLength":288,
			"byteOffset":11592,
			"target":34962
		},
		{
			"buffer":0,
			"byteLength":288,
			"byteOffset":11880,
			"target":34962
		},
		{
			"buffer":0,
			"byteLength":192,
			"byteOffset":12168,
			"target":34962
		},
		{
			"buffer":0,
			"byteLength":288,
			"byteOffset":12360,
			"target":34962
		},
		{
			"buffer":0,
			"byteLength":288,
			"byteOffset":12648,
			"target":34962
		},
		{
			"buffer":0,
			"byteLength":192,
			"byteOffset":12936,
			"target":34962
		},
		{
			"buffer":0,
			"byteLength":288,
			"byteOffset":13128,
			"target":34962
		},
		{
			"buffer":0,
			"byteLength":288,
			"byteOffset":13416,
			"target":34962
		},
		{
			"buffer":0,
			"byteLength":192,
			"byteOffset":13704,
			"target":34962
		}
	],
	"buffers":[
		{
			"byteLength":13896,
			"uri":"lavanery.bin"
		}
	]
}
