{
	"asset":{
		"generator":"Khronos glTF Blender I/O v5.2.39",
		"version":"2.0"
	},
	"scene":0,
	"scenes":[
		{
			"extras":{
				"exporter_coll_props":{
					"export_type":1,
					"asset_id":"asset_2a77e955-b8b0-4a35-b3d7-2270eb953f2d",
					"script_path":"",
					"group_name":"",
					"scene_style":0,
					"export_animations":0,
					"target_asset_id":"",
					"collision_layer":1,
					"collision_mask":1,
					"rigid_sleeping":0,
					"rigid_lock_rotation":0,
					"rigid_freeze":0,
					"rigid_freeze_mode":0,
					"vehicle_brake":0.0,
					"vehicle_engine_force":0.0,
					"vehicle_steering_deg":0.0,
					"vehicle_mass":40.0,
					"animatable_sync_to_physics":0,
					"multimesh_generate_collisions":0,
					"physics_material_path":"",
					"root_type":1
				},
				"NEXUS_ASSET_METADATA":{
					"asset_id":"asset_2a77e955-b8b0-4a35-b3d7-2270eb953f2d",
					"asset_name":"prop",
					"export_type":"ASSET",
					"root_type":"STATIC",
					"scene_style":"wrapper",
					"script_path":"",
					"godot_groups":[],
					"collision_layer":1,
					"collision_mask":1,
					"physics_material_path":"",
					"nexus_metadata":{},
					"nexus_light_bake_mode":1,
					"material_pipeline":"nexus"
				}
			},
			"name":"prop",
			"nodes":[
				0
			]
		}
	],
	"nodes":[
		{
			"extras":{
				"exporter_obj_props":{
					"uuid":"obj_2af9639d-5480-47fd-8e5e-3e69a4e9a1fa",
					"collision_shape":2,
					"size_x":0.0,
					"size_y":0.0,
					"size_z":0.0,
					"radius":3.633496046066284,
					"height":11.823110580444336,
					"offset_x":5.960464477539063e-08,
					"offset_y":4.911555290222168,
					"offset_z":-0.0
				},
				"NEXUS_NODE_METADATA":{
					"uuid":"obj_2af9639d-5480-47fd-8e5e-3e69a4e9a1fa",
					"discard_mesh":false,
					"nexus_collision_dims":{
						"shape":"CYLINDER",
						"margin":1.0,
						"size_x":0.0,
						"size_y":0.0,
						"size_z":0.0,
						"radius":3.6335,
						"height":11.8231,
						"offset_x":0.0,
						"offset_y":4.9116,
						"offset_z":-0.0
					},
					"nexus_uv_layers":[
						{
							"blender_name":"UVMap",
							"gltf_channel_index":0
						}
					]
				}
			},
			"mesh":0,
			"name":"tree1",
			"translation":[
				0,
				1,
				0
			]
		}
	],
	"materials":[
		{
			"doubleSided":true,
			"extras":{
				"nexus_material_id":"mat_e3f30a44-582b-4ccd-acff-cc1bc055ea3c"
			},
			"name":"DUMMY_tree_color_brown_mat_",
			"pbrMetallicRoughness":{
				"baseColorFactor":[
					0.800000011920929,
					0.800000011920929,
					0.800000011920929,
					1
				],
				"metallicFactor":0,
				"roughnessFactor":0.5
			}
		},
		{
			"doubleSided":true,
			"extras":{
				"nexus_material_id":"mat_81850032-a0e8-4228-9b3c-1c3459f97e9d",
				"exporter_mat_props":{}
			},
			"name":"DUMMY_tree_color_green_mat_",
			"pbrMetallicRoughness":{
				"baseColorFactor":[
					0.800000011920929,
					0.800000011920929,
					0.800000011920929,
					1
				],
				"metallicFactor":0,
				"roughnessFactor":0.5
			}
		}
	],
	"meshes":[
		{
			"name":"Cylinder",
			"primitives":[
				{
					"attributes":{
						"POSITION":0,
						"NORMAL":1,
						"TEXCOORD_0":2
					},
					"indices":3,
					"material":0
				},
				{
					"attributes":{
						"POSITION":4,
						"NORMAL":5,
						"TEXCOORD_0":6
					},
					"indices":7,
					"material":1
				}
			]
		}
	],
	"accessors":[
		{
			"bufferView":0,
			"componentType":5126,
			"count":192,
			"max":[
				0.5,
				10.823110580444336,
				0.5
			],
			"min":[
				-0.5,
				-1,
				-0.5
			],
			"type":"VEC3"
		},
		{
			"bufferView":1,
			"componentType":5126,
			"count":192,
			"type":"VEC3"
		},
		{
			"bufferView":2,
			"componentType":5126,
			"count":192,
			"type":"VEC2"
		},
		{
			"bufferView":3,
			"componentType":5123,
			"count":372,
			"type":"SCALAR"
		},
		{
			"bufferView":4,
			"componentType":5126,
			"count":194,
			"max":[
				3.633496046066284,
				10.823110580444336,
				3.633496046066284
			],
			"min":[
				-3.633496046066284,
				2.801483631134033,
				-3.633496046066284
			],
			"type":"VEC3"
		},
		{
			"bufferView":5,
			"componentType":5126,
			"count":194,
			"type":"VEC3"
		},
		{
			"bufferView":6,
			"componentType":5126,
			"count":194,
			"type":"VEC2"
		},
		{
			"bufferView":7,
			"componentType":5123,
			"count":384,
			"type":"SCALAR"
		}
	],
	"bufferViews":[
		{
			"buffer":0,
			"byteLength":2304,
			"byteOffset":0,
			"target":34962
		},
		{
			"buffer":0,
			"byteLength":2304,
			"byteOffset":2304,
			"target":34962
		},
		{
			"buffer":0,
			"byteLength":1536,
			"byteOffset":4608,
			"target":34962
		},
		{
			"buffer":0,
			"byteLength":744,
			"byteOffset":6144,
			"target":34963
		},
		{
			"buffer":0,
			"byteLength":2328,
			"byteOffset":6888,
			"target":34962
		},
		{
			"buffer":0,
			"byteLength":2328,
			"byteOffset":9216,
			"target":34962
		},
		{
			"buffer":0,
			"byteLength":1552,
			"byteOffset":11544,
			"target":34962
		},
		{
			"buffer":0,
			"byteLength":768,
			"byteOffset":13096,
			"target":34963
		}
	],
	"buffers":[
		{
			"byteLength":13864,
			"uri":"prop.bin"
		}
	]
}
