{
	"asset":{
		"generator":"Khronos glTF Blender I/O v5.2.39",
		"version":"2.0"
	},
	"scene":0,
	"scenes":[
		{
			"extras":{
				"exporter_coll_props":{
					"export_type":1,
					"asset_id":"asset_37054535-8b13-48d8-b885-ae4a0182cb78",
					"script_path":"",
					"group_name":"",
					"scene_style":1,
					"export_animations":0,
					"target_asset_id":"",
					"collision_layer":1,
					"collision_mask":1,
					"rigid_sleeping":0,
					"rigid_lock_rotation":0,
					"rigid_freeze":0,
					"rigid_freeze_mode":0,
					"vehicle_brake":0.0,
					"vehicle_engine_force":0.0,
					"vehicle_steering_deg":0.0,
					"vehicle_mass":40.0,
					"animatable_sync_to_physics":0,
					"multimesh_generate_collisions":0,
					"physics_material_path":"",
					"root_type":0
				},
				"NEXUS_ASSET_METADATA":{
					"asset_id":"asset_37054535-8b13-48d8-b885-ae4a0182cb78",
					"asset_name":"door",
					"export_type":"ASSET",
					"root_type":"NODE_3D",
					"scene_style":"inherited",
					"script_path":"",
					"godot_groups":[],
					"collision_layer":1,
					"collision_mask":1,
					"physics_material_path":"",
					"nexus_metadata":{},
					"nexus_light_bake_mode":1,
					"material_pipeline":"nexus"
				}
			},
			"name":"door",
			"nodes":[
				0,
				1,
				2,
				3,
				4
			]
		}
	],
	"nodes":[
		{
			"extras":{
				"exporter_obj_props":{},
				"NEXUS_NODE_METADATA":{
					"uuid":"obj_479f859c-dcae-4ffd-8c11-efadd1b81cfd",
					"discard_mesh":false,
					"nexus_uv_layers":[
						{
							"blender_name":"UVMap",
							"gltf_channel_index":0
						}
					]
				}
			},
			"mesh":0,
			"name":"Cube.003",
			"translation":[
				0.06831169128417969,
				0.4956272840499878,
				0.48015931248664856
			]
		},
		{
			"extras":{
				"exporter_obj_props":{},
				"NEXUS_NODE_METADATA":{
					"uuid":"obj_47af2d4e-8e55-4c2c-8933-bdb2b6801e99",
					"discard_mesh":false,
					"nexus_uv_layers":[
						{
							"blender_name":"UVMap",
							"gltf_channel_index":0
						}
					]
				}
			},
			"mesh":1,
			"name":"Cube.004",
			"translation":[
				0.5979030132293701,
				-0.3060087561607361,
				-2.738110065460205
			]
		},
		{
			"extras":{
				"exporter_obj_props":{},
				"NEXUS_NODE_METADATA":{
					"uuid":"obj_7154bf43-802f-435e-adea-56b0da1d193e",
					"discard_mesh":false,
					"nexus_uv_layers":[
						{
							"blender_name":"UVMap",
							"gltf_channel_index":0
						}
					]
				}
			},
			"mesh":2,
			"name":"Cube.005",
			"translation":[
				-0.6316084265708923,
				-0.3060087561607361,
				-2.738110065460205
			]
		},
		{
			"extras":{
				"exporter_obj_props":{},
				"NEXUS_NODE_METADATA":{
					"uuid":"obj_ea79cf06-5e65-4ef2-8645-5ee409eb10e2",
					"discard_mesh":false,
					"nexus_uv_layers":[
						{
							"blender_name":"UVMap",
							"gltf_channel_index":0
						}
					]
				}
			},
			"mesh":3,
			"name":"Cube.006",
			"rotation":[
				0,
				0,
				-0.7071068286895752,
				0.7071068286895752
			],
			"translation":[
				-2.144371747970581,
				0.9126300811767578,
				-2.8294458389282227
			]
		},
		{
			"extras":{
				"exporter_obj_props":{},
				"NEXUS_NODE_METADATA":{
					"uuid":"obj_fa439076-9c69-4b5a-814e-0fdd0dfc8d4b",
					"discard_mesh":false,
					"nexus_uv_layers":[
						{
							"blender_name":"UVMap",
							"gltf_channel_index":0
						}
					]
				}
			},
			"mesh":4,
			"name":"Cylinder.004",
			"rotation":[
				0.7071068286895752,
				0,
				0,
				0.7071068286895752
			],
			"translation":[
				-0.4291732907295227,
				1.0060166120529175,
				-0.005759209394454956
			]
		}
	],
	"materials":[
		{
			"doubleSided":true,
			"extras":{
				"nexus_material_id":"mat_687e30ae-6e6c-4f63-858f-25aa71a0ddb0",
				"exporter_mat_props":{}
			},
			"name":"DUMMY_door_mat_",
			"pbrMetallicRoughness":{
				"baseColorFactor":[
					0.800000011920929,
					0.800000011920929,
					0.800000011920929,
					1
				],
				"metallicFactor":0,
				"roughnessFactor":0.5
			}
		},
		{
			"doubleSided":true,
			"extras":{
				"nexus_material_id":"mat_745bf037-5ce0-4bcb-a002-d9f56a7f7438"
			},
			"name":"DUMMY_door_corner_mat_",
			"pbrMetallicRoughness":{
				"baseColorFactor":[
					0.800000011920929,
					0.800000011920929,
					0.800000011920929,
					1
				],
				"metallicFactor":0,
				"roughnessFactor":0.5
			}
		},
		{
			"doubleSided":true,
			"extras":{
				"nexus_material_id":"mat_3dbe5a9c-82a0-43ba-8db3-4ae4ac4f7058",
				"exporter_mat_props":{}
			},
			"name":"DUMMY_pomello_mat_",
			"pbrMetallicRoughness":{
				"baseColorFactor":[
					0.800000011920929,
					0.800000011920929,
					0.800000011920929,
					1
				],
				"metallicFactor":0,
				"roughnessFactor":0.5
			}
		}
	],
	"meshes":[
		{
			"name":"Cube.028",
			"primitives":[
				{
					"attributes":{
						"POSITION":0,
						"NORMAL":1,
						"TEXCOORD_0":2
					},
					"indices":3,
					"material":0
				}
			]
		},
		{
			"name":"Cube.029",
			"primitives":[
				{
					"attributes":{
						"POSITION":4,
						"NORMAL":5,
						"TEXCOORD_0":6
					},
					"indices":3,
					"material":1
				}
			]
		},
		{
			"name":"Cube.030",
			"primitives":[
				{
					"attributes":{
						"POSITION":7,
						"NORMAL":8,
						"TEXCOORD_0":9
					},
					"indices":3,
					"material":1
				}
			]
		},
		{
			"name":"Cube.031",
			"primitives":[
				{
					"attributes":{
						"POSITION":10,
						"NORMAL":11,
						"TEXCOORD_0":12
					},
					"indices":3,
					"material":1
				}
			]
		},
		{
			"name":"Cylinder.005",
			"primitives":[
				{
					"attributes":{
						"POSITION":13,
						"NORMAL":14,
						"TEXCOORD_0":15
					},
					"indices":16,
					"material":2
				}
			]
		}
	],
	"accessors":[
		{
			"bufferView":0,
			"componentType":5126,
			"count":24,
			"max":[
				0.5,
				1.6848509311676025,
				0.5
			],
			"min":[
				-0.7013860940933228,
				-0.5078340768814087,
				-0.5
			],
			"type":"VEC3"
		},
		{
			"bufferView":1,
			"componentType":5126,
			"count":24,
			"type":"VEC3"
		},
		{
			"bufferView":2,
			"componentType":5126,
			"count":24,
			"type":"VEC2"
		},
		{
			"bufferView":3,
			"componentType":5123,
			"count":36,
			"type":"SCALAR"
		},
		{
			"bufferView":4,
			"componentType":5126,
			"count":24,
			"max":[
				0.05951488018035889,
				2.555790662765503,
				2.778047561645508
			],
			"min":[
				-0.05951488018035889,
				0.2820180654525757,
				2.659018039703369
			],
			"type":"VEC3"
		},
		{
			"bufferView":5,
			"componentType":5126,
			"count":24,
			"type":"VEC3"
		},
		{
			"bufferView":6,
			"componentType":5126,
			"count":24,
			"type":"VEC2"
		},
		{
			"bufferView":7,
			"componentType":5126,
			"count":24,
			"max":[
				0.05951488018035889,
				2.555452585220337,
				2.778047561645508
			],
			"min":[
				-0.05951488018035889,
				0.2820180654525757,
				2.659018039703369
			],
			"type":"VEC3"
		},
		{
			"bufferView":8,
			"componentType":5126,
			"count":24,
			"type":"VEC3"
		},
		{
			"bufferView":9,
			"componentType":5126,
			"count":24,
			"type":"VEC2"
		},
		{
			"bufferView":10,
			"componentType":5126,
			"count":24,
			"max":[
				-1.220301866531372,
				2.6858530044555664,
				2.8693833351135254
			],
			"min":[
				-1.3393316268920898,
				1.572595477104187,
				2.7503538131713867
			],
			"type":"VEC3"
		},
		{
			"bufferView":11,
			"componentType":5126,
			"count":24,
			"type":"VEC3"
		},
		{
			"bufferView":12,
			"componentType":5126,
			"count":24,
			"type":"VEC2"
		},
		{
			"bufferView":13,
			"componentType":5126,
			"count":192,
			"max":[
				0.07399111986160278,
				0.07399111986160278,
				0.07399111986160278
			],
			"min":[
				-0.07399111986160278,
				-0.07399111986160278,
				-0.07399111986160278
			],
			"type":"VEC3"
		},
		{
			"bufferView":14,
			"componentType":5126,
			"count":192,
			"type":"VEC3"
		},
		{
			"bufferView":15,
			"componentType":5126,
			"count":192,
			"type":"VEC2"
		},
		{
			"bufferView":16,
			"componentType":5123,
			"count":372,
			"type":"SCALAR"
		}
	],
	"bufferViews":[
		{
			"buffer":0,
			"byteLength":288,
			"byteOffset":0,
			"target":34962
		},
		{
			"buffer":0,
			"byteLength":288,
			"byteOffset":288,
			"target":34962
		},
		{
			"buffer":0,
			"byteLength":192,
			"byteOffset":576,
			"target":34962
		},
		{
			"buffer":0,
			"byteLength":72,
			"byteOffset":768,
			"target":34963
		},
		{
			"buffer":0,
			"byteLength":288,
			"byteOffset":840,
			"target":34962
		},
		{
			"buffer":0,
			"byteLength":288,
			"byteOffset":1128,
			"target":34962
		},
		{
			"buffer":0,
			"byteLength":192,
			"byteOffset":1416,
			"target":34962
		},
		{
			"buffer":0,
			"byteLength":288,
			"byteOffset":1608,
			"target":34962
		},
		{
			"buffer":0,
			"byteLength":288,
			"byteOffset":1896,
			"target":34962
		},
		{
			"buffer":0,
			"byteLength":192,
			"byteOffset":2184,
			"target":34962
		},
		{
			"buffer":0,
			"byteLength":288,
			"byteOffset":2376,
			"target":34962
		},
		{
			"buffer":0,
			"byteLength":288,
			"byteOffset":2664,
			"target":34962
		},
		{
			"buffer":0,
			"byteLength":192,
			"byteOffset":2952,
			"target":34962
		},
		{
			"buffer":0,
			"byteLength":2304,
			"byteOffset":3144,
			"target":34962
		},
		{
			"buffer":0,
			"byteLength":2304,
			"byteOffset":5448,
			"target":34962
		},
		{
			"buffer":0,
			"byteLength":1536,
			"byteOffset":7752,
			"target":34962
		},
		{
			"buffer":0,
			"byteLength":744,
			"byteOffset":9288,
			"target":34963
		}
	],
	"buffers":[
		{
			"byteLength":10032,
			"uri":"door.bin"
		}
	]
}
