{
	"asset":{
		"generator":"Khronos glTF Blender I/O v5.2.39",
		"version":"2.0"
	},
	"scene":0,
	"scenes":[
		{
			"extras":{
				"exporter_coll_props":{
					"export_type":1,
					"asset_id":"asset_e71ee8ae-dea2-40ad-bc26-06f268ec7061",
					"script_path":"",
					"group_name":"",
					"scene_style":1,
					"export_animations":0,
					"target_asset_id":"",
					"collision_layer":1,
					"collision_mask":1,
					"rigid_sleeping":0,
					"rigid_lock_rotation":0,
					"rigid_freeze":0,
					"rigid_freeze_mode":0,
					"vehicle_brake":0.0,
					"vehicle_engine_force":0.0,
					"vehicle_steering_deg":0.0,
					"vehicle_mass":40.0,
					"animatable_sync_to_physics":0,
					"multimesh_generate_collisions":0,
					"physics_material_path":"",
					"root_type":0
				},
				"NEXUS_ASSET_METADATA":{
					"asset_id":"asset_e71ee8ae-dea2-40ad-bc26-06f268ec7061",
					"asset_name":"flacone",
					"export_type":"ASSET",
					"root_type":"NODE_3D",
					"scene_style":"inherited",
					"script_path":"",
					"godot_groups":[],
					"collision_layer":1,
					"collision_mask":1,
					"physics_material_path":"",
					"nexus_metadata":{},
					"nexus_light_bake_mode":1,
					"material_pipeline":"nexus"
				}
			},
			"name":"flacone",
			"nodes":[
				0
			]
		}
	],
	"nodes":[
		{
			"extras":{
				"exporter_obj_props":{
					"uuid":"obj_273fe6be-7158-428d-89e7-9288c1dc71ea"
				},
				"NEXUS_NODE_METADATA":{
					"uuid":"obj_273fe6be-7158-428d-89e7-9288c1dc71ea",
					"discard_mesh":false,
					"nexus_uv_layers":[
						{
							"blender_name":"UVMap",
							"gltf_channel_index":0
						}
					]
				}
			},
			"mesh":0,
			"name":"Cylinder.005",
			"scale":[
				0.12720121443271637,
				0.12720121443271637,
				0.12720121443271637
			],
			"translation":[
				0.0005960387061350048,
				0.12873870134353638,
				-0.0007967011770233512
			]
		}
	],
	"materials":[
		{
			"doubleSided":true,
			"extras":{
				"nexus_material_id":"mat_b5473a41-507a-4239-b96a-6654176af812"
			},
			"name":"DUMMY_lavatory_mat_",
			"pbrMetallicRoughness":{
				"baseColorFactor":[
					0.800000011920929,
					0.800000011920929,
					0.800000011920929,
					1
				],
				"metallicFactor":0,
				"roughnessFactor":0.5
			}
		},
		{
			"doubleSided":true,
			"extras":{
				"nexus_material_id":"mat_a385f5a4-d628-4a79-aaac-45030a5d1e2f"
			},
			"name":"DUMMY_Material_mat_",
			"pbrMetallicRoughness":{
				"baseColorFactor":[
					0.800000011920929,
					0.800000011920929,
					0.800000011920929,
					1
				],
				"metallicFactor":0,
				"roughnessFactor":0.5
			}
		}
	],
	"meshes":[
		{
			"name":"Cylinder.006",
			"primitives":[
				{
					"attributes":{
						"POSITION":0,
						"NORMAL":1,
						"TEXCOORD_0":2
					},
					"indices":3,
					"material":0
				},
				{
					"attributes":{
						"POSITION":4,
						"NORMAL":5,
						"TEXCOORD_0":6
					},
					"indices":7,
					"material":1
				}
			]
		}
	],
	"accessors":[
		{
			"bufferView":0,
			"componentType":5126,
			"count":872,
			"max":[
				0.867155134677887,
				2.117678642272949,
				1.2255918979644775
			],
			"min":[
				-0.867155134677887,
				-1,
				-1.7468763589859009
			],
			"type":"VEC3"
		},
		{
			"bufferView":1,
			"componentType":5126,
			"count":872,
			"type":"VEC3"
		},
		{
			"bufferView":2,
			"componentType":5126,
			"count":872,
			"type":"VEC2"
		},
		{
			"bufferView":3,
			"componentType":5123,
			"count":1350,
			"type":"SCALAR"
		},
		{
			"bufferView":4,
			"componentType":5126,
			"count":994,
			"max":[
				0.5177960991859436,
				2.599644660949707,
				0.7599985003471375
			],
			"min":[
				-0.20325317978858948,
				2.117678642272949,
				0.05809664726257324
			],
			"type":"VEC3"
		},
		{
			"bufferView":5,
			"componentType":5126,
			"count":994,
			"type":"VEC3"
		},
		{
			"bufferView":6,
			"componentType":5126,
			"count":994,
			"type":"VEC2"
		},
		{
			"bufferView":7,
			"componentType":5123,
			"count":1626,
			"type":"SCALAR"
		}
	],
	"bufferViews":[
		{
			"buffer":0,
			"byteLength":10464,
			"byteOffset":0,
			"target":34962
		},
		{
			"buffer":0,
			"byteLength":10464,
			"byteOffset":10464,
			"target":34962
		},
		{
			"buffer":0,
			"byteLength":6976,
			"byteOffset":20928,
			"target":34962
		},
		{
			"buffer":0,
			"byteLength":2700,
			"byteOffset":27904,
			"target":34963
		},
		{
			"buffer":0,
			"byteLength":11928,
			"byteOffset":30604,
			"target":34962
		},
		{
			"buffer":0,
			"byteLength":11928,
			"byteOffset":42532,
			"target":34962
		},
		{
			"buffer":0,
			"byteLength":7952,
			"byteOffset":54460,
			"target":34962
		},
		{
			"buffer":0,
			"byteLength":3252,
			"byteOffset":62412,
			"target":34963
		}
	],
	"buffers":[
		{
			"byteLength":65664,
			"uri":"flacone.bin"
		}
	]
}
