{
	"asset":{
		"generator":"Khronos glTF Blender I/O v5.2.39",
		"version":"2.0"
	},
	"scene":0,
	"scenes":[
		{
			"extras":{
				"exporter_coll_props":{
					"export_type":1,
					"asset_id":"asset_bc25819f-dea5-435f-b807-b6ac9b02e2a9",
					"script_path":"",
					"group_name":"",
					"scene_style":0,
					"export_animations":0,
					"target_asset_id":"",
					"collision_layer":1,
					"collision_mask":1,
					"rigid_sleeping":0,
					"rigid_lock_rotation":0,
					"rigid_freeze":0,
					"rigid_freeze_mode":0,
					"vehicle_brake":0.0,
					"vehicle_engine_force":0.0,
					"vehicle_steering_deg":0.0,
					"vehicle_mass":40.0,
					"animatable_sync_to_physics":0,
					"multimesh_generate_collisions":0,
					"physics_material_path":"",
					"root_type":1
				},
				"NEXUS_ASSET_METADATA":{
					"asset_id":"asset_bc25819f-dea5-435f-b807-b6ac9b02e2a9",
					"asset_name":"Interogatory",
					"export_type":"ASSET",
					"root_type":"STATIC",
					"scene_style":"wrapper",
					"script_path":"",
					"godot_groups":[],
					"collision_layer":1,
					"collision_mask":1,
					"physics_material_path":"",
					"nexus_metadata":{},
					"nexus_light_bake_mode":1,
					"material_pipeline":"nexus"
				}
			},
			"name":"Interogatory",
			"nodes":[
				0,
				1,
				2,
				3,
				4,
				5
			]
		}
	],
	"nodes":[
		{
			"extras":{
				"exporter_obj_props":{
					"collision_shape":1,
					"size_x":0.5,
					"size_y":1.0,
					"size_z":1.25,
					"radius":0.0,
					"height":0.0,
					"offset_x":0.0,
					"offset_y":0.0,
					"offset_z":-0.0
				},
				"NEXUS_NODE_METADATA":{
					"uuid":"obj_d7e244c1-b6dc-4a14-b8ba-917c36e7909a",
					"discard_mesh":false,
					"nexus_collision_dims":{
						"shape":"BOX",
						"margin":1.0,
						"size_x":0.5,
						"size_y":1.0,
						"size_z":1.25,
						"radius":0.0,
						"height":0.0,
						"offset_x":0.0,
						"offset_y":0.0,
						"offset_z":-0.0
					},
					"nexus_uv_layers":[
						{
							"blender_name":"UVMap",
							"gltf_channel_index":0
						}
					]
				}
			},
			"mesh":0,
			"name":"Cube"
		},
		{
			"extras":{
				"exporter_obj_props":{
					"collision_shape":1,
					"size_x":3.0,
					"size_y":0.5,
					"size_z":3.0,
					"radius":0.0,
					"height":0.0,
					"offset_x":0.0,
					"offset_y":0.0,
					"offset_z":-0.0
				},
				"NEXUS_NODE_METADATA":{
					"uuid":"obj_1cf194e0-5c74-4628-a8f6-e6c5dcc6eb20",
					"discard_mesh":false,
					"nexus_collision_dims":{
						"shape":"BOX",
						"margin":1.0,
						"size_x":3.0,
						"size_y":0.5,
						"size_z":3.0,
						"radius":0.0,
						"height":0.0,
						"offset_x":0.0,
						"offset_y":0.0,
						"offset_z":-0.0
					},
					"nexus_uv_layers":[
						{
							"blender_name":"UVMap",
							"gltf_channel_index":0
						}
					]
				}
			},
			"mesh":1,
			"name":"Ground.002",
			"translation":[
				0,
				-0.5,
				0
			]
		},
		{
			"extras":{
				"exporter_obj_props":{
					"collision_shape":1,
					"size_x":3.662213087081909,
					"size_y":3.662213087081909,
					"size_z":0.5,
					"radius":0.0,
					"height":0.0,
					"offset_x":5.960464477539063e-08,
					"offset_y":0.0,
					"offset_z":-0.0
				},
				"NEXUS_NODE_METADATA":{
					"uuid":"obj_15abb388-7b5c-4aae-8e97-a0e5f0b05214",
					"discard_mesh":false,
					"nexus_collision_dims":{
						"shape":"BOX",
						"margin":1.0,
						"size_x":3.6622,
						"size_y":3.6622,
						"size_z":0.5,
						"radius":0.0,
						"height":0.0,
						"offset_x":0.0,
						"offset_y":0.0,
						"offset_z":-0.0
					},
					"nexus_uv_layers":[
						{
							"blender_name":"UVMap",
							"gltf_channel_index":0
						}
					]
				}
			},
			"mesh":2,
			"name":"wall1",
			"translation":[
				0,
				0,
				-3.4589743614196777
			]
		},
		{
			"extras":{
				"exporter_obj_props":{
					"collision_shape":1,
					"size_x":3.662213087081909,
					"size_y":3.662213087081909,
					"size_z":0.5,
					"radius":0.0,
					"height":0.0,
					"offset_x":5.960464477539063e-08,
					"offset_y":0.0,
					"offset_z":-0.0
				},
				"NEXUS_NODE_METADATA":{
					"uuid":"obj_17a0aa3e-4bad-47f9-af73-b4559a1dd3b1",
					"discard_mesh":false,
					"nexus_collision_dims":{
						"shape":"BOX",
						"margin":1.0,
						"size_x":3.6622,
						"size_y":3.6622,
						"size_z":0.5,
						"radius":0.0,
						"height":0.0,
						"offset_x":0.0,
						"offset_y":0.0,
						"offset_z":-0.0
					},
					"nexus_uv_layers":[
						{
							"blender_name":"UVMap",
							"gltf_channel_index":0
						}
					]
				}
			},
			"mesh":3,
			"name":"wall2",
			"translation":[
				0,
				0,
				3.4278221130371094
			]
		},
		{
			"extras":{
				"exporter_obj_props":{
					"collision_shape":1,
					"size_x":0.5,
					"size_y":3.6950230598449707,
					"size_z":3.6950230598449707,
					"radius":0.0,
					"height":0.0,
					"offset_x":0.0,
					"offset_y":0.0,
					"offset_z":-0.0
				},
				"NEXUS_NODE_METADATA":{
					"uuid":"obj_0ebde71e-e206-4990-b3de-93c04517bddd",
					"discard_mesh":false,
					"nexus_collision_dims":{
						"shape":"BOX",
						"margin":1.0,
						"size_x":0.5,
						"size_y":3.695,
						"size_z":3.695,
						"radius":0.0,
						"height":0.0,
						"offset_x":0.0,
						"offset_y":0.0,
						"offset_z":-0.0
					},
					"nexus_uv_layers":[
						{
							"blender_name":"UVMap",
							"gltf_channel_index":0
						}
					]
				}
			},
			"mesh":4,
			"name":"wall3",
			"translation":[
				3.4857537746429443,
				0,
				0
			]
		},
		{
			"extras":{
				"exporter_obj_props":{
					"collision_shape":1,
					"size_x":0.5,
					"size_y":3.6950230598449707,
					"size_z":3.6950230598449707,
					"radius":0.0,
					"height":0.0,
					"offset_x":0.0,
					"offset_y":0.0,
					"offset_z":-0.0
				},
				"NEXUS_NODE_METADATA":{
					"uuid":"obj_2b2cf72c-db59-4559-95e5-d27bdf8303e8",
					"discard_mesh":false,
					"nexus_collision_dims":{
						"shape":"BOX",
						"margin":1.0,
						"size_x":0.5,
						"size_y":3.695,
						"size_z":3.695,
						"radius":0.0,
						"height":0.0,
						"offset_x":0.0,
						"offset_y":0.0,
						"offset_z":-0.0
					},
					"nexus_uv_layers":[
						{
							"blender_name":"UVMap",
							"gltf_channel_index":0
						}
					]
				}
			},
			"mesh":5,
			"name":"wall4",
			"translation":[
				-3.447179079055786,
				0,
				0
			]
		}
	],
	"materials":[
		{
			"doubleSided":true,
			"extras":{
				"nexus_material_id":"mat_1ecf9b94-b4f2-46f0-81b7-68f116eb786a",
				"exporter_mat_props":{}
			},
			"name":"DUMMY_desk_mat_",
			"pbrMetallicRoughness":{
				"baseColorFactor":[
					0.800000011920929,
					0.800000011920929,
					0.800000011920929,
					1
				],
				"metallicFactor":0,
				"roughnessFactor":0.5
			}
		},
		{
			"doubleSided":true,
			"extras":{
				"nexus_material_id":"mat_1abfa7a3-c3a8-4cd0-8827-e23d9d2efd4c",
				"exporter_mat_props":{}
			},
			"name":"DUMMY_ground_mat_",
			"pbrMetallicRoughness":{
				"baseColorFactor":[
					0.800000011920929,
					0.800000011920929,
					0.800000011920929,
					1
				],
				"metallicFactor":0,
				"roughnessFactor":0.5
			}
		},
		{
			"doubleSided":true,
			"extras":{
				"nexus_material_id":"mat_b2284dfe-0c52-42ac-8333-eaa09719fb0b",
				"exporter_mat_props":{}
			},
			"name":"DUMMY_wall_mat_",
			"pbrMetallicRoughness":{
				"baseColorFactor":[
					0.800000011920929,
					0.800000011920929,
					0.800000011920929,
					1
				],
				"metallicFactor":0,
				"roughnessFactor":0.5
			}
		}
	],
	"meshes":[
		{
			"name":"Cube.025",
			"primitives":[
				{
					"attributes":{
						"POSITION":0,
						"NORMAL":1,
						"TEXCOORD_0":2
					},
					"indices":3,
					"material":0
				}
			]
		},
		{
			"name":"Cube.020",
			"primitives":[
				{
					"attributes":{
						"POSITION":4,
						"NORMAL":5,
						"TEXCOORD_0":6
					},
					"indices":3,
					"material":1
				}
			]
		},
		{
			"name":"Cube.021",
			"primitives":[
				{
					"attributes":{
						"POSITION":7,
						"NORMAL":8,
						"TEXCOORD_0":9
					},
					"indices":3,
					"material":2
				}
			]
		},
		{
			"name":"Cube.022",
			"primitives":[
				{
					"attributes":{
						"POSITION":10,
						"NORMAL":11,
						"TEXCOORD_0":12
					},
					"indices":3,
					"material":2
				}
			]
		},
		{
			"name":"Cube.023",
			"primitives":[
				{
					"attributes":{
						"POSITION":13,
						"NORMAL":14,
						"TEXCOORD_0":15
					},
					"indices":3,
					"material":2
				}
			]
		},
		{
			"name":"Cube.024",
			"primitives":[
				{
					"attributes":{
						"POSITION":16,
						"NORMAL":17,
						"TEXCOORD_0":18
					},
					"indices":3,
					"material":2
				}
			]
		}
	],
	"accessors":[
		{
			"bufferView":0,
			"componentType":5126,
			"count":24,
			"max":[
				0.5,
				1,
				1.25
			],
			"min":[
				-0.5,
				-1,
				-1.25
			],
			"type":"VEC3"
		},
		{
			"bufferView":1,
			"componentType":5126,
			"count":24,
			"type":"VEC3"
		},
		{
			"bufferView":2,
			"componentType":5126,
			"count":24,
			"type":"VEC2"
		},
		{
			"bufferView":3,
			"componentType":5123,
			"count":36,
			"type":"SCALAR"
		},
		{
			"bufferView":4,
			"componentType":5126,
			"count":24,
			"max":[
				3,
				0.5,
				3
			],
			"min":[
				-3,
				-0.5,
				-3
			],
			"type":"VEC3"
		},
		{
			"bufferView":5,
			"componentType":5126,
			"count":24,
			"type":"VEC3"
		},
		{
			"bufferView":6,
			"componentType":5126,
			"count":24,
			"type":"VEC2"
		},
		{
			"bufferView":7,
			"componentType":5126,
			"count":24,
			"max":[
				3.662213087081909,
				3.662213087081909,
				0.5
			],
			"min":[
				-3.662213087081909,
				-3.662213087081909,
				-0.5
			],
			"type":"VEC3"
		},
		{
			"bufferView":8,
			"componentType":5126,
			"count":24,
			"type":"VEC3"
		},
		{
			"bufferView":9,
			"componentType":5126,
			"count":24,
			"type":"VEC2"
		},
		{
			"bufferView":10,
			"componentType":5126,
			"count":24,
			"max":[
				3.662213087081909,
				3.662213087081909,
				0.5
			],
			"min":[
				-3.662213087081909,
				-3.662213087081909,
				-0.5
			],
			"type":"VEC3"
		},
		{
			"bufferView":11,
			"componentType":5126,
			"count":24,
			"type":"VEC3"
		},
		{
			"bufferView":12,
			"componentType":5126,
			"count":24,
			"type":"VEC2"
		},
		{
			"bufferView":13,
			"componentType":5126,
			"count":24,
			"max":[
				0.5,
				3.6950230598449707,
				3.6950230598449707
			],
			"min":[
				-0.5,
				-3.6950230598449707,
				-3.6950230598449707
			],
			"type":"VEC3"
		},
		{
			"bufferView":14,
			"componentType":5126,
			"count":24,
			"type":"VEC3"
		},
		{
			"bufferView":15,
			"componentType":5126,
			"count":24,
			"type":"VEC2"
		},
		{
			"bufferView":16,
			"componentType":5126,
			"count":24,
			"max":[
				0.5,
				3.6950230598449707,
				3.6950230598449707
			],
			"min":[
				-0.5,
				-3.6950230598449707,
				-3.6950230598449707
			],
			"type":"VEC3"
		},
		{
			"bufferView":17,
			"componentType":5126,
			"count":24,
			"type":"VEC3"
		},
		{
			"bufferView":18,
			"componentType":5126,
			"count":24,
			"type":"VEC2"
		}
	],
	"bufferViews":[
		{
			"buffer":0,
			"byteLength":288,
			"byteOffset":0,
			"target":34962
		},
		{
			"buffer":0,
			"byteLength":288,
			"byteOffset":288,
			"target":34962
		},
		{
			"buffer":0,
			"byteLength":192,
			"byteOffset":576,
			"target":34962
		},
		{
			"buffer":0,
			"byteLength":72,
			"byteOffset":768,
			"target":34963
		},
		{
			"buffer":0,
			"byteLength":288,
			"byteOffset":840,
			"target":34962
		},
		{
			"buffer":0,
			"byteLength":288,
			"byteOffset":1128,
			"target":34962
		},
		{
			"buffer":0,
			"byteLength":192,
			"byteOffset":1416,
			"target":34962
		},
		{
			"buffer":0,
			"byteLength":288,
			"byteOffset":1608,
			"target":34962
		},
		{
			"buffer":0,
			"byteLength":288,
			"byteOffset":1896,
			"target":34962
		},
		{
			"buffer":0,
			"byteLength":192,
			"byteOffset":2184,
			"target":34962
		},
		{
			"buffer":0,
			"byteLength":288,
			"byteOffset":2376,
			"target":34962
		},
		{
			"buffer":0,
			"byteLength":288,
			"byteOffset":2664,
			"target":34962
		},
		{
			"buffer":0,
			"byteLength":192,
			"byteOffset":2952,
			"target":34962
		},
		{
			"buffer":0,
			"byteLength":288,
			"byteOffset":3144,
			"target":34962
		},
		{
			"buffer":0,
			"byteLength":288,
			"byteOffset":3432,
			"target":34962
		},
		{
			"buffer":0,
			"byteLength":192,
			"byteOffset":3720,
			"target":34962
		},
		{
			"buffer":0,
			"byteLength":288,
			"byteOffset":3912,
			"target":34962
		},
		{
			"buffer":0,
			"byteLength":288,
			"byteOffset":4200,
			"target":34962
		},
		{
			"buffer":0,
			"byteLength":192,
			"byteOffset":4488,
			"target":34962
		}
	],
	"buffers":[
		{
			"byteLength":4680,
			"uri":"Interogatory.bin"
		}
	]
}
