{
	"asset":{
		"generator":"Khronos glTF Blender I/O v5.2.39",
		"version":"2.0"
	},
	"scene":0,
	"scenes":[
		{
			"extras":{
				"exporter_coll_props":{
					"export_type":1,
					"asset_id":"asset_e5e8da27-ffb8-49f1-8b48-c46217c32e50",
					"script_path":"",
					"group_name":"",
					"scene_style":1,
					"export_animations":0,
					"target_asset_id":"",
					"collision_layer":1,
					"collision_mask":1,
					"rigid_sleeping":0,
					"rigid_lock_rotation":0,
					"rigid_freeze":0,
					"rigid_freeze_mode":0,
					"vehicle_brake":0.0,
					"vehicle_engine_force":0.0,
					"vehicle_steering_deg":0.0,
					"vehicle_mass":40.0,
					"animatable_sync_to_physics":0,
					"multimesh_generate_collisions":0,
					"physics_material_path":"",
					"root_type":0
				},
				"NEXUS_ASSET_METADATA":{
					"asset_id":"asset_e5e8da27-ffb8-49f1-8b48-c46217c32e50",
					"asset_name":"lavatrice",
					"export_type":"ASSET",
					"root_type":"NODE_3D",
					"scene_style":"inherited",
					"script_path":"",
					"godot_groups":[],
					"collision_layer":1,
					"collision_mask":1,
					"physics_material_path":"",
					"nexus_metadata":{},
					"nexus_light_bake_mode":1,
					"material_pipeline":"nexus"
				}
			},
			"name":"lavatrice",
			"nodes":[
				0,
				1,
				2,
				3,
				4,
				5,
				6
			]
		}
	],
	"nodes":[
		{
			"extras":{
				"exporter_obj_props":{},
				"NEXUS_NODE_METADATA":{
					"uuid":"obj_4ce3562d-2336-441b-94e0-f95793c23a43",
					"discard_mesh":false,
					"nexus_uv_layers":[
						{
							"blender_name":"UVMap",
							"gltf_channel_index":0
						}
					]
				}
			},
			"mesh":0,
			"name":"Cube.001",
			"translation":[
				0,
				0.5,
				0
			]
		},
		{
			"extras":{
				"exporter_obj_props":{},
				"NEXUS_NODE_METADATA":{
					"uuid":"obj_6158c207-a250-4ef6-be31-332711417a7d",
					"discard_mesh":false,
					"nexus_uv_layers":[
						{
							"blender_name":"UVMap",
							"gltf_channel_index":0
						}
					]
				}
			},
			"mesh":1,
			"name":"Cube.002",
			"translation":[
				-0.2589113712310791,
				0.8078649640083313,
				0.4512215554714203
			]
		},
		{
			"extras":{
				"exporter_obj_props":{},
				"NEXUS_NODE_METADATA":{
					"uuid":"obj_609fa838-e28a-4e16-8450-0352b30a3f62",
					"discard_mesh":false,
					"nexus_uv_layers":[
						{
							"blender_name":"UVMap",
							"gltf_channel_index":0
						}
					]
				}
			},
			"mesh":2,
			"name":"Cylinder",
			"rotation":[
				0.7071068286895752,
				0,
				0,
				0.7071068286895752
			],
			"translation":[
				0,
				0.3950534462928772,
				0.25834155082702637
			]
		},
		{
			"extras":{
				"exporter_obj_props":{},
				"NEXUS_NODE_METADATA":{
					"uuid":"obj_62cd2acb-5412-40ae-b125-80289760500b",
					"discard_mesh":false,
					"nexus_uv_layers":[
						{
							"blender_name":"UVMap",
							"gltf_channel_index":0
						}
					]
				}
			},
			"mesh":3,
			"name":"Cylinder.001",
			"rotation":[
				0.7071068286895752,
				0,
				0,
				0.7071068286895752
			],
			"translation":[
				0.38721877336502075,
				0.8269662857055664,
				0.48706912994384766
			]
		},
		{
			"extras":{
				"exporter_obj_props":{},
				"NEXUS_NODE_METADATA":{
					"uuid":"obj_14e1922c-080b-4e6f-9b8d-a64c6ce92470",
					"discard_mesh":false,
					"nexus_uv_layers":[
						{
							"blender_name":"UVMap",
							"gltf_channel_index":0
						}
					]
				}
			},
			"mesh":4,
			"name":"Cylinder.002",
			"rotation":[
				0.7071068286895752,
				0,
				0,
				0.7071068286895752
			],
			"translation":[
				0.3027346432209015,
				0.8269662857055664,
				0.48706912994384766
			]
		},
		{
			"extras":{
				"exporter_obj_props":{},
				"NEXUS_NODE_METADATA":{
					"uuid":"obj_ec5fa36e-d0d0-4295-9c48-3fc2d098786e",
					"discard_mesh":false,
					"nexus_uv_layers":[
						{
							"blender_name":"UVMap",
							"gltf_channel_index":0
						}
					]
				}
			},
			"mesh":5,
			"name":"Cylinder.003",
			"rotation":[
				0.7071068286895752,
				0,
				0,
				0.7071068286895752
			],
			"translation":[
				0.21428731083869934,
				0.8269662857055664,
				0.48706912994384766
			]
		},
		{
			"extras":{
				"exporter_obj_props":{},
				"NEXUS_NODE_METADATA":{
					"uuid":"obj_278a9a19-9e1a-456e-bc44-91880294e3ea",
					"discard_mesh":false,
					"nexus_uv_layers":[
						{
							"blender_name":"UVMap",
							"gltf_channel_index":0
						}
					]
				}
			},
			"mesh":6,
			"name":"Torus",
			"rotation":[
				0.7071068286895752,
				0,
				0,
				0.7071068286895752
			],
			"translation":[
				0,
				0.39772188663482666,
				0.4990355670452118
			]
		}
	],
	"materials":[
		{
			"doubleSided":true,
			"extras":{
				"nexus_material_id":"mat_b5473a41-507a-4239-b96a-6654176af812",
				"exporter_mat_props":{}
			},
			"name":"DUMMY_lavatory_mat_",
			"pbrMetallicRoughness":{
				"baseColorFactor":[
					0.800000011920929,
					0.800000011920929,
					0.800000011920929,
					1
				],
				"metallicFactor":0,
				"roughnessFactor":0.5
			}
		},
		{
			"doubleSided":true,
			"extras":{
				"nexus_material_id":"mat_1abfa7a3-c3a8-4cd0-8827-e23d9d2efd4c",
				"exporter_mat_props":{}
			},
			"name":"DUMMY_ground_mat_",
			"pbrMetallicRoughness":{
				"baseColorFactor":[
					0.800000011920929,
					0.800000011920929,
					0.800000011920929,
					1
				],
				"metallicFactor":0,
				"roughnessFactor":0.5
			}
		},
		{
			"doubleSided":true,
			"extras":{
				"nexus_material_id":"mat_34d1da92-4bcb-4626-a8e2-a73d1d0fb7e0",
				"exporter_mat_props":{}
			},
			"name":"DUMMY_lavatory_transparent_mat_",
			"pbrMetallicRoughness":{
				"baseColorFactor":[
					0.800000011920929,
					0.800000011920929,
					0.800000011920929,
					1
				],
				"metallicFactor":0,
				"roughnessFactor":0.5
			}
		},
		{
			"doubleSided":true,
			"extras":{
				"nexus_material_id":"mat_687e30ae-6e6c-4f63-858f-25aa71a0ddb0",
				"exporter_mat_props":{}
			},
			"name":"DUMMY_door_mat_",
			"pbrMetallicRoughness":{
				"baseColorFactor":[
					0.800000011920929,
					0.800000011920929,
					0.800000011920929,
					1
				],
				"metallicFactor":0,
				"roughnessFactor":0.5
			}
		}
	],
	"meshes":[
		{
			"name":"Cube.026",
			"primitives":[
				{
					"attributes":{
						"POSITION":0,
						"NORMAL":1,
						"TEXCOORD_0":2
					},
					"indices":3,
					"material":0
				}
			]
		},
		{
			"name":"Cube.027",
			"primitives":[
				{
					"attributes":{
						"POSITION":4,
						"NORMAL":5,
						"TEXCOORD_0":6
					},
					"indices":7,
					"material":1
				}
			]
		},
		{
			"name":"Cylinder.001",
			"primitives":[
				{
					"attributes":{
						"POSITION":8,
						"NORMAL":9,
						"TEXCOORD_0":10
					},
					"indices":11,
					"material":2
				}
			]
		},
		{
			"name":"Cylinder.002",
			"primitives":[
				{
					"attributes":{
						"POSITION":12,
						"NORMAL":13,
						"TEXCOORD_0":14
					},
					"indices":11,
					"material":1
				}
			]
		},
		{
			"name":"Cylinder.003",
			"primitives":[
				{
					"attributes":{
						"POSITION":15,
						"NORMAL":16,
						"TEXCOORD_0":17
					},
					"indices":11,
					"material":1
				}
			]
		},
		{
			"name":"Cylinder.004",
			"primitives":[
				{
					"attributes":{
						"POSITION":18,
						"NORMAL":19,
						"TEXCOORD_0":20
					},
					"indices":21,
					"material":1
				}
			]
		},
		{
			"name":"Torus",
			"primitives":[
				{
					"attributes":{
						"POSITION":22,
						"NORMAL":23,
						"TEXCOORD_0":24
					},
					"indices":25,
					"material":3
				}
			]
		}
	],
	"accessors":[
		{
			"bufferView":0,
			"componentType":5126,
			"count":88,
			"max":[
				0.5,
				0.5,
				0.5
			],
			"min":[
				-0.5,
				-0.5,
				-0.5
			],
			"type":"VEC3"
		},
		{
			"bufferView":1,
			"componentType":5126,
			"count":88,
			"type":"VEC3"
		},
		{
			"bufferView":2,
			"componentType":5126,
			"count":88,
			"type":"VEC2"
		},
		{
			"bufferView":3,
			"componentType":5123,
			"count":132,
			"type":"SCALAR"
		},
		{
			"bufferView":4,
			"componentType":5126,
			"count":88,
			"max":[
				0.1202053651213646,
				0.059857726097106934,
				0.059857726097106934
			],
			"min":[
				-0.1202053651213646,
				-0.059857726097106934,
				-0.059857726097106934
			],
			"type":"VEC3"
		},
		{
			"bufferView":5,
			"componentType":5126,
			"count":88,
			"type":"VEC3"
		},
		{
			"bufferView":6,
			"componentType":5126,
			"count":88,
			"type":"VEC2"
		},
		{
			"bufferView":7,
			"componentType":5123,
			"count":132,
			"type":"SCALAR"
		},
		{
			"bufferView":8,
			"componentType":5126,
			"count":192,
			"max":[
				0.26687875390052795,
				0.26687875390052795,
				0.26687875390052795
			],
			"min":[
				-0.26687875390052795,
				-0.26687875390052795,
				-0.26687875390052795
			],
			"type":"VEC3"
		},
		{
			"bufferView":9,
			"componentType":5126,
			"count":192,
			"type":"VEC3"
		},
		{
			"bufferView":10,
			"componentType":5126,
			"count":192,
			"type":"VEC2"
		},
		{
			"bufferView":11,
			"componentType":5123,
			"count":372,
			"type":"SCALAR"
		},
		{
			"bufferView":12,
			"componentType":5126,
			"count":192,
			"max":[
				0.028871838003396988,
				0.028871838003396988,
				0.028871838003396988
			],
			"min":[
				-0.028871838003396988,
				-0.028871838003396988,
				-0.028871838003396988
			],
			"type":"VEC3"
		},
		{
			"bufferView":13,
			"componentType":5126,
			"count":192,
			"type":"VEC3"
		},
		{
			"bufferView":14,
			"componentType":5126,
			"count":192,
			"type":"VEC2"
		},
		{
			"bufferView":15,
			"componentType":5126,
			"count":192,
			"max":[
				0.028871838003396988,
				0.028871838003396988,
				0.028871838003396988
			],
			"min":[
				-0.028871838003396988,
				-0.028871838003396988,
				-0.028871838003396988
			],
			"type":"VEC3"
		},
		{
			"bufferView":16,
			"componentType":5126,
			"count":192,
			"type":"VEC3"
		},
		{
			"bufferView":17,
			"componentType":5126,
			"count":192,
			"type":"VEC2"
		},
		{
			"bufferView":18,
			"componentType":5126,
			"count":130,
			"max":[
				0.028871838003396988,
				0.028871838003396988,
				0.028871838003396988
			],
			"min":[
				-0.028871838003396988,
				-0.028871838003396988,
				-0.028871838003396988
			],
			"type":"VEC3"
		},
		{
			"bufferView":19,
			"componentType":5126,
			"count":130,
			"type":"VEC3"
		},
		{
			"bufferView":20,
			"componentType":5126,
			"count":130,
			"type":"VEC2"
		},
		{
			"bufferView":21,
			"componentType":5123,
			"count":372,
			"type":"SCALAR"
		},
		{
			"bufferView":22,
			"componentType":5126,
			"count":2304,
			"max":[
				0.328357458114624,
				0.051601018756628036,
				0.328357458114624
			],
			"min":[
				-0.328357458114624,
				-0.051601018756628036,
				-0.328357458114624
			],
			"type":"VEC3"
		},
		{
			"bufferView":23,
			"componentType":5126,
			"count":2304,
			"type":"VEC3"
		},
		{
			"bufferView":24,
			"componentType":5126,
			"count":2304,
			"type":"VEC2"
		},
		{
			"bufferView":25,
			"componentType":5123,
			"count":3456,
			"type":"SCALAR"
		}
	],
	"bufferViews":[
		{
			"buffer":0,
			"byteLength":1056,
			"byteOffset":0,
			"target":34962
		},
		{
			"buffer":0,
			"byteLength":1056,
			"byteOffset":1056,
			"target":34962
		},
		{
			"buffer":0,
			"byteLength":704,
			"byteOffset":2112,
			"target":34962
		},
		{
			"buffer":0,
			"byteLength":264,
			"byteOffset":2816,
			"target":34963
		},
		{
			"buffer":0,
			"byteLength":1056,
			"byteOffset":3080,
			"target":34962
		},
		{
			"buffer":0,
			"byteLength":1056,
			"byteOffset":4136,
			"target":34962
		},
		{
			"buffer":0,
			"byteLength":704,
			"byteOffset":5192,
			"target":34962
		},
		{
			"buffer":0,
			"byteLength":264,
			"byteOffset":5896,
			"target":34963
		},
		{
			"buffer":0,
			"byteLength":2304,
			"byteOffset":6160,
			"target":34962
		},
		{
			"buffer":0,
			"byteLength":2304,
			"byteOffset":8464,
			"target":34962
		},
		{
			"buffer":0,
			"byteLength":1536,
			"byteOffset":10768,
			"target":34962
		},
		{
			"buffer":0,
			"byteLength":744,
			"byteOffset":12304,
			"target":34963
		},
		{
			"buffer":0,
			"byteLength":2304,
			"byteOffset":13048,
			"target":34962
		},
		{
			"buffer":0,
			"byteLength":2304,
			"byteOffset":15352,
			"target":34962
		},
		{
			"buffer":0,
			"byteLength":1536,
			"byteOffset":17656,
			"target":34962
		},
		{
			"buffer":0,
			"byteLength":2304,
			"byteOffset":19192,
			"target":34962
		},
		{
			"buffer":0,
			"byteLength":2304,
			"byteOffset":21496,
			"target":34962
		},
		{
			"buffer":0,
			"byteLength":1536,
			"byteOffset":23800,
			"target":34962
		},
		{
			"buffer":0,
			"byteLength":1560,
			"byteOffset":25336,
			"target":34962
		},
		{
			"buffer":0,
			"byteLength":1560,
			"byteOffset":26896,
			"target":34962
		},
		{
			"buffer":0,
			"byteLength":1040,
			"byteOffset":28456,
			"target":34962
		},
		{
			"buffer":0,
			"byteLength":744,
			"byteOffset":29496,
			"target":34963
		},
		{
			"buffer":0,
			"byteLength":27648,
			"byteOffset":30240,
			"target":34962
		},
		{
			"buffer":0,
			"byteLength":27648,
			"byteOffset":57888,
			"target":34962
		},
		{
			"buffer":0,
			"byteLength":18432,
			"byteOffset":85536,
			"target":34962
		},
		{
			"buffer":0,
			"byteLength":6912,
			"byteOffset":103968,
			"target":34963
		}
	],
	"buffers":[
		{
			"byteLength":110880,
			"uri":"lavatrice.bin"
		}
	]
}
