{
	"asset":{
		"generator":"Khronos glTF Blender I/O v5.2.39",
		"version":"2.0"
	},
	"scene":0,
	"scenes":[
		{
			"extras":{
				"exporter_coll_props":{
					"export_type":1,
					"asset_id":"asset_2cfd551c-6cb1-43d8-b002-af72852e748b",
					"script_path":"",
					"group_name":"",
					"scene_style":0,
					"export_animations":0,
					"target_asset_id":"",
					"collision_layer":1,
					"collision_mask":1,
					"rigid_sleeping":0,
					"rigid_lock_rotation":0,
					"rigid_freeze":0,
					"rigid_freeze_mode":0,
					"vehicle_brake":0.0,
					"vehicle_engine_force":0.0,
					"vehicle_steering_deg":0.0,
					"vehicle_mass":40.0,
					"animatable_sync_to_physics":0,
					"multimesh_generate_collisions":0,
					"physics_material_path":"",
					"root_type":1
				},
				"NEXUS_ASSET_METADATA":{
					"asset_id":"asset_2cfd551c-6cb1-43d8-b002-af72852e748b",
					"asset_name":"maps",
					"export_type":"ASSET",
					"root_type":"STATIC",
					"scene_style":"wrapper",
					"script_path":"",
					"godot_groups":[],
					"collision_layer":1,
					"collision_mask":1,
					"physics_material_path":"",
					"nexus_metadata":{},
					"nexus_light_bake_mode":1,
					"material_pipeline":"nexus"
				}
			},
			"name":"maps",
			"nodes":[
				0
			]
		}
	],
	"nodes":[
		{
			"extras":{
				"exporter_obj_props":{
					"collision_shape":1,
					"size_x":96.65258026123047,
					"size_y":0.5,
					"size_z":96.65258026123047,
					"radius":0.0,
					"height":0.0,
					"offset_x":1.9073486328125e-06,
					"offset_y":-0.5,
					"offset_z":-0.0,
					"uuid":"obj_bd8d9a9e-922a-4f8e-b9a8-708d2a0fcaf2"
				},
				"NEXUS_NODE_METADATA":{
					"uuid":"obj_bd8d9a9e-922a-4f8e-b9a8-708d2a0fcaf2",
					"discard_mesh":false,
					"nexus_collision_dims":{
						"shape":"BOX",
						"margin":1.0,
						"size_x":96.6526,
						"size_y":0.5,
						"size_z":96.6526,
						"radius":0.0,
						"height":0.0,
						"offset_x":0.0,
						"offset_y":-0.5,
						"offset_z":-0.0
					},
					"nexus_uv_layers":[
						{
							"blender_name":"UVMap",
							"gltf_channel_index":0
						}
					]
				}
			},
			"mesh":0,
			"name":"terrain"
		}
	],
	"materials":[
		{
			"doubleSided":true,
			"extras":{
				"nexus_material_id":"mat_b5473a41-507a-4239-b96a-6654176af812",
				"exporter_mat_props":{}
			},
			"name":"DUMMY_Grass_mat_",
			"pbrMetallicRoughness":{
				"baseColorFactor":[
					0.800000011920929,
					0.800000011920929,
					0.800000011920929,
					1
				],
				"metallicFactor":0,
				"roughnessFactor":0.5
			}
		}
	],
	"meshes":[
		{
			"name":"Cube",
			"primitives":[
				{
					"attributes":{
						"POSITION":0,
						"NORMAL":1,
						"TEXCOORD_0":2
					},
					"indices":3,
					"material":0
				}
			]
		}
	],
	"accessors":[
		{
			"bufferView":0,
			"componentType":5126,
			"count":24,
			"max":[
				96.65258026123047,
				0,
				96.65258026123047
			],
			"min":[
				-96.65258026123047,
				-1,
				-96.65258026123047
			],
			"type":"VEC3"
		},
		{
			"bufferView":1,
			"componentType":5126,
			"count":24,
			"type":"VEC3"
		},
		{
			"bufferView":2,
			"componentType":5126,
			"count":24,
			"type":"VEC2"
		},
		{
			"bufferView":3,
			"componentType":5123,
			"count":36,
			"type":"SCALAR"
		}
	],
	"bufferViews":[
		{
			"buffer":0,
			"byteLength":288,
			"byteOffset":0,
			"target":34962
		},
		{
			"buffer":0,
			"byteLength":288,
			"byteOffset":288,
			"target":34962
		},
		{
			"buffer":0,
			"byteLength":192,
			"byteOffset":576,
			"target":34962
		},
		{
			"buffer":0,
			"byteLength":72,
			"byteOffset":768,
			"target":34963
		}
	],
	"buffers":[
		{
			"byteLength":840,
			"uri":"maps.bin"
		}
	]
}
